<svg xmlns="http://www.w3.org/2000/svg" width="22" height="22" viewBox="0 0 22 22" fill="none"><path d="M18.9559 1.98747H17.9032L17.6107 0.546844C17.5463 0.22995 17.2684 0 16.95 0H5.04843C4.72988 0 4.45199 0.22995 4.38772 0.546844L4.09511 1.98747H3.04233C2.57741 1.98747 2.19922 2.37167 2.19922 2.84399V4.26012C2.19922 4.73244 2.57741 5.11681 3.04233 5.11681H3.45604L3.69049 6.79041C3.61944 6.83203 3.55468 6.88524 3.49966 6.94952C3.35889 7.11452 3.29545 7.33305 3.32568 7.54941L4.89081 18.7208C4.93393 19.0289 5.16177 19.2733 5.44958 19.3455L5.6723 20.936C5.75738 21.5426 6.27617 22 6.87922 22H15.1192C15.7223 22 16.2411 21.5426 16.3261 20.936L16.5489 19.3455C16.8367 19.2733 17.0645 19.0289 17.1076 18.7208L18.6728 7.54941C18.703 7.33305 18.6395 7.11452 18.4988 6.94952C18.4438 6.88524 18.379 6.83203 18.3078 6.79041L18.5424 5.11681H18.9561C19.421 5.11681 19.7992 4.73244 19.7992 4.26012V2.84399C19.7991 2.37167 19.4209 1.98747 18.9559 1.98747ZM18.0439 7.45844L16.4788 18.6298C16.4714 18.6828 16.4261 18.7226 16.3736 18.7226H13.3347C13.1594 18.7226 13.0173 18.867 13.0173 19.0452C13.0173 19.2235 13.1594 19.3678 13.3347 19.3678H15.9043L15.6973 20.8452C15.6565 21.1358 15.408 21.355 15.119 21.355H6.87922C6.59026 21.355 6.34177 21.1358 6.30096 20.8452L6.0941 19.3678H11.8571C12.0326 19.3678 12.1747 19.2235 12.1747 19.0452C12.1747 18.867 12.0326 18.7226 11.8571 18.7226H5.62471C5.57217 18.7226 5.5269 18.6828 5.51947 18.6298L3.95434 7.45844C3.9484 7.41597 3.9674 7.38626 3.97929 7.37233C3.99069 7.35907 4.01548 7.33792 4.05414 7.33591C4.05843 7.33574 4.06256 7.3354 4.06702 7.33507H17.9312C17.9355 7.3354 17.9398 7.33574 17.9441 7.33591C17.9828 7.33792 18.0076 7.35907 18.019 7.37233C18.0309 7.38626 18.0499 7.41597 18.0439 7.45844ZM4.09759 5.11681H17.9008L17.6804 6.69003H4.31799L4.09759 5.11681ZM19.1641 4.26012C19.1641 4.37677 19.0708 4.4716 18.9559 4.4716H3.04233C2.92767 4.4716 2.83416 4.37677 2.83416 4.26012V2.84399C2.83416 2.72734 2.92767 2.63251 3.04233 2.63251H5.88361C6.05891 2.63251 6.201 2.48816 6.201 2.30991C6.201 2.13182 6.05891 1.98747 5.88361 1.98747H4.7436L5.0096 0.677261C5.0134 0.65863 5.02976 0.645035 5.04843 0.645035H16.95C16.9687 0.645035 16.985 0.65863 16.9888 0.677261L17.2548 1.98747H7.36117C7.18571 1.98747 7.04362 2.13182 7.04362 2.30991C7.04362 2.48816 7.18571 2.63251 7.36117 2.63251H18.9559C19.0708 2.63251 19.1641 2.72734 19.1641 2.84399V4.26012Z" fill="#626571"></path><path d="M13.3876 10.3736C13.3854 10.3714 13.3831 10.3694 13.3808 10.3672C12.3254 9.30609 10.4027 9.52631 9.08838 10.8617C8.46021 11.4997 8.05972 12.2971 7.96059 13.1071C7.85766 13.9471 8.08814 14.7012 8.6094 15.2307C8.6094 15.2309 8.60957 15.2309 8.60973 15.2311C8.61056 15.2319 8.61139 15.2328 8.61221 15.2334C9.05203 15.6787 9.6483 15.9142 10.3199 15.9142C10.444 15.9142 10.5709 15.906 10.6996 15.8899C11.4969 15.7892 12.2819 15.3821 12.9101 14.7442C14.2277 13.4054 14.4426 11.4455 13.389 10.3751C13.3885 10.3744 13.388 10.3741 13.3876 10.3736ZM8.59073 13.1867C8.67252 12.5185 9.00874 11.8548 9.53728 11.3177C10.1706 10.6744 10.9635 10.3353 11.6724 10.3353C11.9982 10.3353 12.306 10.4073 12.5727 10.554C12.0395 10.8758 11.2116 11.5087 10.9598 12.4468C10.7407 13.2624 9.55215 14.1659 8.89986 14.5849C8.63419 14.2141 8.52448 13.7273 8.59073 13.1867ZM12.461 14.288C11.9323 14.8251 11.279 15.1665 10.6213 15.2495C10.1567 15.3083 9.7324 15.2309 9.38924 15.0308C10.044 14.5918 11.2982 13.638 11.5724 12.6165C11.7963 11.7822 12.6812 11.2204 13.0854 11.002C13.7139 11.852 13.4607 13.2721 12.461 14.288Z" fill="#626571"></path></svg>