<svg xmlns="http://www.w3.org/2000/svg" width="22" height="22" viewBox="0 0 22 22" fill="none"><path d="M2.80651 20.9001H6.2203C6.67284 20.8996 7.1067 20.7256 7.4267 20.4163C7.74669 20.107 7.92669 19.6876 7.9272 19.2501V18.5901C7.92737 18.3464 7.83417 18.1113 7.66557 17.9301C7.83402 17.7488 7.9272 17.5138 7.9272 17.2701C7.9272 17.0264 7.83402 16.7914 7.66557 16.6101C7.83402 16.4288 7.9272 16.1938 7.9272 15.9501C7.9272 15.7064 7.83402 15.4714 7.66557 15.2901C7.83402 15.1088 7.9272 14.8738 7.9272 14.6301C7.9272 14.3864 7.83402 14.1514 7.66557 13.9701C7.83417 13.7889 7.92737 13.5538 7.9272 13.3101V6.68922C7.92738 6.54407 7.89446 6.40066 7.83077 6.26921C7.76708 6.13775 7.67419 6.02149 7.55872 5.9287L5.87892 4.57553V3.7401C5.96946 3.7401 6.05629 3.70533 6.12031 3.64344C6.18433 3.58156 6.2203 3.49762 6.2203 3.4101V2.0901C6.21998 1.82763 6.11198 1.57599 5.91999 1.3904C5.72799 1.2048 5.46768 1.1004 5.19616 1.1001H3.83064C3.55912 1.1004 3.29881 1.2048 3.10682 1.3904C2.91482 1.57599 2.80682 1.82763 2.80651 2.0901V3.4101C2.80651 3.49762 2.84247 3.58156 2.90649 3.64344C2.97052 3.70533 3.05735 3.7401 3.14789 3.7401V4.57553L1.46809 5.92853C1.35259 6.02134 1.25969 6.13763 1.196 6.26912C1.13231 6.4006 1.0994 6.54404 1.09961 6.68922V13.3101C1.09944 13.5538 1.19264 13.7889 1.36123 13.9701C1.19279 14.1514 1.09961 14.3864 1.09961 14.6301C1.09961 14.8738 1.19279 15.1088 1.36123 15.2901C1.19279 15.4714 1.09961 15.7064 1.09961 15.9501C1.09961 16.1938 1.19279 16.4288 1.36123 16.6101C1.19279 16.7914 1.09961 17.0264 1.09961 17.2701C1.09961 17.5138 1.19279 17.7488 1.36123 17.9301C1.19264 18.1113 1.09944 18.3464 1.09961 18.5901V19.2501C1.10012 19.6876 1.28012 20.107 1.60011 20.4163C1.92011 20.7256 2.35397 20.8996 2.80651 20.9001ZM7.24444 19.2501C7.24413 19.5126 7.13614 19.7642 6.94414 19.9498C6.75214 20.1354 6.49182 20.2398 6.2203 20.2401H2.80651C2.53498 20.2398 2.27467 20.1354 2.08267 19.9498C1.89067 19.7642 1.78267 19.5126 1.78237 19.2501V18.5901C1.78247 18.5026 1.81847 18.4187 1.88247 18.3569C1.94647 18.295 2.03324 18.2602 2.12375 18.2601H6.90306C6.99357 18.2602 7.08034 18.295 7.14434 18.3569C7.20834 18.4187 7.24434 18.5026 7.24444 18.5901V19.2501ZM1.78237 17.2701C1.78247 17.1826 1.81847 17.0987 1.88247 17.0369C1.94647 16.975 2.03324 16.9402 2.12375 16.9401H6.90306C6.9936 16.9401 7.08043 16.9749 7.14445 17.0368C7.20847 17.0986 7.24444 17.1826 7.24444 17.2701C7.24444 17.3576 7.20847 17.4416 7.14445 17.5034C7.08043 17.5653 6.9936 17.6001 6.90306 17.6001H2.12375C2.03324 17.6 1.94647 17.5652 1.88247 17.5033C1.81847 17.4415 1.78247 17.3576 1.78237 17.2701ZM1.78237 15.9501C1.78247 15.8626 1.81847 15.7787 1.88247 15.7169C1.94647 15.655 2.03324 15.6202 2.12375 15.6201H6.90306C6.9936 15.6201 7.08043 15.6549 7.14445 15.7168C7.20847 15.7786 7.24444 15.8626 7.24444 15.9501C7.24444 16.0376 7.20847 16.1216 7.14445 16.1834C7.08043 16.2453 6.9936 16.2801 6.90306 16.2801H2.12375C2.03324 16.28 1.94647 16.2452 1.88247 16.1833C1.81847 16.1215 1.78247 16.0376 1.78237 15.9501ZM1.78237 14.6301C1.78247 14.5426 1.81847 14.4587 1.88247 14.3969C1.94647 14.335 2.03324 14.3002 2.12375 14.3001H6.90306C6.9936 14.3001 7.08043 14.3349 7.14445 14.3968C7.20847 14.4586 7.24444 14.5426 7.24444 14.6301C7.24444 14.7176 7.20847 14.8016 7.14445 14.8634C7.08043 14.9253 6.9936 14.9601 6.90306 14.9601H2.12375C2.03324 14.96 1.94647 14.9252 1.88247 14.8633C1.81847 14.8015 1.78247 14.7176 1.78237 14.6301ZM1.78237 13.3101V12.9801H7.24444V13.3101C7.24434 13.3976 7.20834 13.4815 7.14434 13.5433C7.08034 13.6052 6.99357 13.64 6.90306 13.6401H2.12375C2.03324 13.64 1.94647 13.6052 1.88247 13.5433C1.81847 13.4815 1.78247 13.3976 1.78237 13.3101ZM7.24444 12.3201H1.78237V7.7001H7.24444V12.3201ZM3.48927 2.0901C3.48937 2.00261 3.52537 1.91873 3.58937 1.85686C3.65336 1.795 3.74014 1.7602 3.83064 1.7601H5.19616C5.28667 1.7602 5.37344 1.795 5.43744 1.85686C5.50144 1.91873 5.53744 2.00261 5.53754 2.0901V3.0801H3.48927V2.0901ZM5.19616 3.7401V4.4001H3.83064V3.7401H5.19616ZM1.90518 6.4357L3.61302 5.0601H5.41379L7.12141 6.4357C7.15995 6.46661 7.19096 6.50536 7.21222 6.54918C7.23349 6.593 7.24449 6.64082 7.24444 6.68922V7.0401H1.78237V6.68922C1.7823 6.64084 1.79327 6.59303 1.8145 6.54921C1.83573 6.50539 1.86669 6.46663 1.90518 6.4357Z" fill="#626571"></path><path d="M3.5267 11.3086C3.65845 11.428 3.8137 11.5206 3.98321 11.5808C4.15271 11.6411 4.33302 11.6677 4.51341 11.6593C4.53048 11.6598 4.54744 11.6601 4.56428 11.6601C4.91163 11.6649 5.24728 11.5389 5.50013 11.3086C5.62041 11.198 5.71605 11.0648 5.78119 10.9171C5.84633 10.7695 5.87959 10.6106 5.87893 10.4501C5.87893 10.1691 5.74899 9.94958 5.65409 9.78928C5.5607 9.63925 5.45781 9.49494 5.34599 9.35719C5.24188 9.2297 5.14638 9.09585 5.06009 8.95648L4.81092 8.52831C4.78123 8.47727 4.73802 8.43478 4.68573 8.40522C4.63344 8.37565 4.57395 8.36007 4.51337 8.36007C4.45279 8.36007 4.3933 8.37565 4.34101 8.40522C4.28872 8.43478 4.24551 8.47727 4.21581 8.52831L3.96665 8.95648C3.88035 9.09585 3.78485 9.2297 3.68075 9.35719C3.56893 9.49494 3.46603 9.63925 3.37265 9.78928C3.27783 9.94958 3.14789 10.1691 3.14789 10.4501C3.14724 10.6106 3.1805 10.7695 3.24563 10.9171C3.31077 11.0648 3.40641 11.198 3.5267 11.3086ZM3.96533 10.1171C4.04487 9.99106 4.13211 9.86977 4.22657 9.7538C4.32446 9.62795 4.42512 9.49855 4.51341 9.35954C4.6017 9.49855 4.70237 9.62795 4.80026 9.7538C4.89472 9.86977 4.98195 9.99106 5.0615 10.1171C5.13779 10.246 5.19617 10.3522 5.19617 10.4501C5.19648 10.5215 5.1817 10.5922 5.15274 10.6579C5.12377 10.7236 5.08124 10.7828 5.02774 10.8321C4.96062 10.8914 4.88167 10.9368 4.79574 10.9656C4.7098 10.9943 4.61869 11.0058 4.52801 10.9993C4.52314 10.9991 4.51828 10.9991 4.51341 10.9991C4.50855 10.9991 4.50368 10.9991 4.49882 10.9993C4.40813 11.0058 4.31702 10.9943 4.23108 10.9656C4.14515 10.9368 4.0662 10.8914 3.99908 10.8321C3.94558 10.7828 3.90305 10.7236 3.87409 10.6579C3.84513 10.5922 3.83035 10.5215 3.83065 10.4501C3.83065 10.3525 3.88903 10.246 3.96533 10.1171Z" fill="#626571"></path><path d="M20.3836 6.42357C20.375 6.41883 20.3665 6.4145 20.3574 6.4105L16.1203 4.51902V3.7401C16.2108 3.7401 16.2977 3.70533 16.3617 3.64344C16.4257 3.58156 16.4617 3.49762 16.4617 3.4101V2.0901C16.4614 1.82763 16.3534 1.57599 16.1614 1.3904C15.9694 1.2048 15.7091 1.1004 15.4375 1.1001H14.072C13.8005 1.1004 13.5402 1.2048 13.3482 1.3904C13.1562 1.57599 13.0482 1.82763 13.0479 2.0901V3.4101C13.0479 3.49762 13.0839 3.58156 13.1479 3.64344C13.2119 3.70533 13.2987 3.7401 13.3893 3.7401V4.51902L9.15224 6.4105C9.14332 6.41462 9.13453 6.41875 9.12599 6.42357C8.96938 6.51033 8.83921 6.63548 8.74861 6.7864C8.65801 6.93731 8.61018 7.10865 8.60995 7.28314V9.3501C8.60978 9.59379 8.70298 9.82892 8.87158 10.0101C8.70313 10.1914 8.60995 10.4264 8.60995 10.6701C8.60995 10.9138 8.70313 11.1488 8.87158 11.3301C8.70313 11.5114 8.60995 11.7464 8.60995 11.9901C8.60995 12.2338 8.70313 12.4688 8.87158 12.6501C8.70313 12.8314 8.60995 13.0664 8.60995 13.3101C8.60995 13.5538 8.70313 13.7888 8.87158 13.9701C8.70313 14.1514 8.60995 14.3864 8.60995 14.6301C8.60995 14.8738 8.70313 15.1088 8.87158 15.2901C8.70313 15.4714 8.60995 15.7064 8.60995 15.9501C8.60995 16.1938 8.70313 16.4288 8.87158 16.6101C8.70313 16.7914 8.60995 17.0264 8.60995 17.2701C8.60995 17.5138 8.70313 17.7488 8.87158 17.9301C8.70298 18.1113 8.60978 18.3464 8.60995 18.5901V19.2501C8.61046 19.6876 8.79046 20.107 9.11045 20.4163C9.43045 20.7256 9.86431 20.8996 10.3169 20.9001H19.1927C19.6453 20.8996 20.0791 20.7256 20.3991 20.4163C20.7191 20.107 20.8991 19.6876 20.8996 19.2501V18.5901C20.8998 18.3464 20.8066 18.1113 20.638 17.9301C20.8064 17.7488 20.8996 17.5138 20.8996 17.2701C20.8996 17.0264 20.8064 16.7914 20.638 16.6101C20.8064 16.4288 20.8996 16.1938 20.8996 15.9501C20.8996 15.7064 20.8064 15.4714 20.638 15.2901C20.8064 15.1088 20.8996 14.8738 20.8996 14.6301C20.8996 14.3864 20.8064 14.1514 20.638 13.9701C20.8064 13.7888 20.8996 13.5538 20.8996 13.3101C20.8996 13.0664 20.8064 12.8314 20.638 12.6501C20.8064 12.4688 20.8996 12.2338 20.8996 11.9901C20.8996 11.7464 20.8064 11.5114 20.638 11.3301C20.8064 11.1488 20.8996 10.9138 20.8996 10.6701C20.8996 10.4264 20.8064 10.1914 20.638 10.0101C20.8066 9.82892 20.8998 9.59379 20.8996 9.3501V7.28314C20.8994 7.10865 20.8516 6.93731 20.761 6.7864C20.6704 6.63548 20.5402 6.51033 20.3836 6.42357ZM13.7306 2.0901C13.7307 2.00261 13.7667 1.91873 13.8307 1.85686C13.8947 1.795 13.9815 1.7602 14.072 1.7601H15.4375C15.528 1.7602 15.6148 1.795 15.6788 1.85686C15.7428 1.91873 15.7788 2.00261 15.7789 2.0901V3.0801H13.7306V2.0901ZM15.4375 3.7401V4.4001H14.072V3.7401H15.4375ZM13.8057 5.0601H15.7039L20.0554 7.00268C20.0732 7.01362 20.0899 7.02615 20.1053 7.0401H17.8272C17.7367 7.0401 17.6498 7.07487 17.5858 7.13675C17.5218 7.19864 17.4858 7.28258 17.4858 7.3701C17.4858 7.45762 17.5218 7.54156 17.5858 7.60344C17.6498 7.66533 17.7367 7.7001 17.8272 7.7001H20.2169V9.3501C20.2167 9.43759 20.1808 9.52147 20.1168 9.58333C20.0528 9.6452 19.966 9.68 19.8755 9.6801H9.63409C9.54358 9.68 9.45681 9.6452 9.39281 9.58333C9.32881 9.52147 9.29281 9.43759 9.29271 9.3501V7.7001H16.4617C16.5522 7.7001 16.639 7.66533 16.7031 7.60344C16.7671 7.54156 16.8031 7.45762 16.8031 7.3701C16.8031 7.28258 16.7671 7.19864 16.7031 7.13675C16.639 7.07487 16.5522 7.0401 16.4617 7.0401H9.40426C9.41966 7.02614 9.43639 7.01361 9.45423 7.00268L13.8057 5.0601ZM20.2169 10.6701C20.2167 10.7576 20.1808 10.8415 20.1168 10.9033C20.0528 10.9652 19.966 11 19.8755 11.0001H19.5341V10.3401H19.8755C19.966 10.3402 20.0528 10.375 20.1168 10.4369C20.1808 10.4987 20.2167 10.5826 20.2169 10.6701ZM20.2169 11.9901C20.2167 12.0776 20.1808 12.1615 20.1168 12.2233C20.0528 12.2852 19.966 12.32 19.8755 12.3201H19.5341V11.6601H19.8755C19.966 11.6602 20.0528 11.695 20.1168 11.7569C20.1808 11.8187 20.2167 11.9026 20.2169 11.9901ZM20.2169 13.3101C20.2167 13.3976 20.1808 13.4815 20.1168 13.5433C20.0528 13.6052 19.966 13.64 19.8755 13.6401H19.5341V12.9801H19.8755C19.966 12.9802 20.0528 13.015 20.1168 13.0769C20.1808 13.1387 20.2167 13.2226 20.2169 13.3101ZM20.2169 14.6301C20.2167 14.7176 20.1808 14.8015 20.1168 14.8633C20.0528 14.9252 19.966 14.96 19.8755 14.9601H19.5341V14.3001H19.8755C19.966 14.3002 20.0528 14.335 20.1168 14.3969C20.1808 14.4587 20.2167 14.5426 20.2169 14.6301ZM20.2169 15.9501C20.2167 16.0376 20.1808 16.1215 20.1168 16.1833C20.0528 16.2452 19.966 16.28 19.8755 16.2801H9.63409C9.54355 16.2801 9.45672 16.2453 9.3927 16.1834C9.32868 16.1216 9.29271 16.0376 9.29271 15.9501C9.29271 15.8626 9.32868 15.7786 9.3927 15.7168C9.45672 15.6549 9.54355 15.6201 9.63409 15.6201H19.8755C19.966 15.6202 20.0528 15.655 20.1168 15.7169C20.1808 15.7787 20.2167 15.8626 20.2169 15.9501ZM20.2169 17.2701C20.2167 17.3576 20.1808 17.4415 20.1168 17.5033C20.0528 17.5652 19.966 17.6 19.8755 17.6001H9.63409C9.54355 17.6001 9.45672 17.5653 9.3927 17.5034C9.32868 17.4416 9.29271 17.3576 9.29271 17.2701C9.29271 17.1826 9.32868 17.0986 9.3927 17.0368C9.45672 16.9749 9.54355 16.9401 9.63409 16.9401H19.8755C19.966 16.9402 20.0528 16.975 20.1168 17.0369C20.1808 17.0987 20.2167 17.1826 20.2169 17.2701ZM9.29271 14.6301C9.29281 14.5426 9.32881 14.4587 9.39281 14.3969C9.45681 14.335 9.54358 14.3002 9.63409 14.3001H9.97547V14.9601H9.63409C9.54358 14.96 9.45681 14.9252 9.39281 14.8633C9.32881 14.8015 9.29281 14.7176 9.29271 14.6301ZM9.29271 13.3101C9.29281 13.2226 9.32881 13.1387 9.39281 13.0769C9.45681 13.015 9.54358 12.9802 9.63409 12.9801H9.97547V13.6401H9.63409C9.54358 13.64 9.45681 13.6052 9.39281 13.5433C9.32881 13.4815 9.29281 13.3976 9.29271 13.3101ZM9.29271 11.9901C9.29281 11.9026 9.32881 11.8187 9.39281 11.7569C9.45681 11.695 9.54358 11.6602 9.63409 11.6601H9.97547V12.3201H9.63409C9.54358 12.32 9.45681 12.2852 9.39281 12.2233C9.32881 12.1615 9.29281 12.0776 9.29271 11.9901ZM9.29271 10.6701C9.29281 10.5826 9.32881 10.4987 9.39281 10.4369C9.45681 10.375 9.54358 10.3402 9.63409 10.3401H9.97547V11.0001H9.63409C9.54358 11 9.45681 10.9652 9.39281 10.9033C9.32881 10.8415 9.29281 10.7576 9.29271 10.6701ZM18.8513 14.9601H10.6582V10.3401H18.8513V14.9601ZM20.2169 19.2501C20.2165 19.5126 20.1085 19.7642 19.9165 19.9498C19.7245 20.1354 19.4642 20.2398 19.1927 20.2401H10.3169C10.0453 20.2398 9.78502 20.1354 9.59303 19.9498C9.40103 19.7642 9.29303 19.5126 9.29271 19.2501V18.5901C9.29281 18.5026 9.32881 18.4187 9.39281 18.3569C9.45681 18.295 9.54358 18.2602 9.63409 18.2601H19.8755C19.966 18.2602 20.0528 18.295 20.1168 18.3569C20.1808 18.4187 20.2167 18.5026 20.2169 18.5901V19.2501Z" fill="#626571"></path><path d="M13.7681 13.9486C13.8997 14.0682 14.0549 14.1608 14.2245 14.2211C14.394 14.2813 14.5744 14.3079 14.7548 14.2993C14.7718 14.2998 14.7888 14.3001 14.8056 14.3001C15.153 14.3049 15.4886 14.1789 15.7415 13.9486C15.8618 13.838 15.9574 13.7048 16.0226 13.5572C16.0877 13.4095 16.121 13.2506 16.1203 13.0901C16.1203 12.8091 15.9903 12.5895 15.8954 12.4293C15.802 12.2792 15.6991 12.1349 15.5873 11.9971C15.4832 11.8696 15.3877 11.7358 15.3014 11.5965L15.0522 11.1683C15.0225 11.1173 14.9793 11.0748 14.927 11.0452C14.8747 11.0156 14.8153 11.0001 14.7547 11.0001C14.6941 11.0001 14.6346 11.0156 14.5823 11.0452C14.53 11.0748 14.4868 11.1173 14.4571 11.1683L14.208 11.5965C14.1217 11.7358 14.0262 11.8696 13.9221 11.9971C13.8102 12.1349 13.7074 12.2792 13.614 12.4292C13.5191 12.5895 13.3891 12.8091 13.3891 13.0901C13.3884 13.2506 13.4217 13.4095 13.4869 13.5572C13.5521 13.7048 13.6477 13.838 13.7681 13.9486ZM14.2067 12.7571C14.2863 12.631 14.3735 12.5097 14.468 12.3937C14.5658 12.2679 14.6665 12.1385 14.7548 11.9995C14.8431 12.1385 14.9437 12.2679 15.0416 12.3937C15.1361 12.5097 15.2233 12.6311 15.3029 12.7571C15.3791 12.886 15.4375 12.9922 15.4375 13.0901C15.4378 13.1615 15.4231 13.2322 15.3941 13.2979C15.3651 13.3636 15.3226 13.4229 15.2691 13.4721C15.202 13.5314 15.123 13.5768 15.0371 13.6056C14.9512 13.6343 14.86 13.6458 14.7694 13.6393C14.7645 13.6391 14.7596 13.6391 14.7548 13.6391C14.7499 13.6391 14.745 13.6391 14.7402 13.6393C14.6495 13.6458 14.5584 13.6343 14.4725 13.6055C14.3865 13.5768 14.3076 13.5314 14.2404 13.4721C14.1869 13.4229 14.1444 13.3636 14.1154 13.2979C14.0865 13.2322 14.0717 13.1615 14.072 13.0901C14.072 12.9925 14.1304 12.886 14.2067 12.7571Z" fill="#626571"></path></svg>