<svg xmlns="http://www.w3.org/2000/svg" width="22" height="22" viewBox="0 0 22 22" fill="none"><g clip-path="url(#clip0_184_604)"><path d="M19.937 10.1373H12.2491C11.9457 7.83784 10.9348 6.71537 10.1857 5.88466C9.60184 5.23725 9.29805 4.873 9.31679 4.30616C9.31696 4.30143 9.31704 4.29666 9.31704 4.29193V3.13216H9.63518C10.1495 3.13216 10.5679 2.71322 10.5679 2.19824V0.933926C10.568 0.418945 10.1496 0 9.63523 0H2.70613C2.19111 0 1.77216 0.418945 1.77216 0.933926V2.1982C1.77216 2.71318 2.19111 3.13212 2.70609 3.13212H3.02423V4.29189C3.02423 4.29645 3.02431 4.30104 3.02444 4.30564C3.04257 4.87231 2.73879 5.23639 2.15497 5.88341C1.24554 6.89146 0 8.27196 0 11.5962V20.0734C0 21.1357 0.863715 22 1.92539 22H19.937C20.1743 22 20.3667 21.8076 20.3667 21.5703V14.2159C21.2987 14.0178 22 13.1887 22 12.1991C22 11.0622 21.0745 10.1373 19.937 10.1373ZM2.63154 2.1982V0.933926C2.63154 0.893492 2.6657 0.859375 2.70609 0.859375H9.63523C9.67502 0.859375 9.70858 0.893492 9.70858 0.933926V2.1982C9.70858 2.23863 9.67502 2.27275 9.63523 2.27275H2.70613C2.6657 2.27279 2.63154 2.23863 2.63154 2.1982ZM3.88364 4.28536V3.13216H8.45771V4.28523C8.43 5.21263 8.9635 5.81247 9.53275 6.44381C7.3168 7.58334 5.10911 7.58115 2.81269 6.43736C3.38005 5.80843 3.91037 5.20975 3.88364 4.28536ZM2.23425 7.10634C3.56538 7.80111 4.89311 8.14915 6.20959 8.14915C7.52301 8.14915 8.82514 7.80252 10.1083 7.11099C10.6479 7.79131 11.1705 8.68712 11.3818 10.1373H7.13475C5.99788 10.1373 5.07298 11.0622 5.07298 12.1991C5.07298 13.1887 5.77375 14.0177 6.70506 14.2159V18.6438H0.859375V11.5962C0.859375 9.23115 1.52848 7.99292 2.23425 7.10634ZM0.859375 20.0734V19.5031H6.70502V21.1406H1.92539C1.33757 21.1406 0.859375 20.6619 0.859375 20.0734ZM7.1347 13.4015C6.4717 13.4015 5.93231 12.8621 5.93231 12.1991C5.93231 11.5361 6.47174 10.9967 7.1347 10.9967H14.7544C15.4174 10.9967 15.9568 11.5361 15.9568 12.1991C15.9568 12.8621 15.4174 13.4015 14.7544 13.4015C14.5172 13.4015 14.3248 13.5939 14.3248 13.8312V21.1406H7.56439V13.8312C7.56439 13.5939 7.37198 13.4015 7.1347 13.4015ZM19.937 13.4015C19.6997 13.4015 19.5073 13.5939 19.5073 13.8312V21.1406H15.1841V14.2159C16.1155 14.0177 16.8162 13.1887 16.8162 12.1991C16.8162 11.7506 16.6718 11.3354 16.4277 10.9966H19.937C20.6006 10.9966 21.1406 11.5361 21.1406 12.1991C21.1406 12.8621 20.6007 13.4015 19.937 13.4015Z" fill="#626571"></path></g><defs><clipPath id="clip0_184_604"><rect width="22" height="22" fill="white"></rect></clipPath></defs></svg>