<svg xmlns="http://www.w3.org/2000/svg" width="22" height="22" viewBox="0 0 22 22" fill="none"><path d="M20.5584 3.32661C19.0585 0.0593825 15.4812 -0.482922 11.9739 0.343311C6.49555 1.71859 1.64179 4.00669 0.233295 9.27942C-0.679948 13.1554 1.22801 16.9492 3.52407 18.9898C5.38815 20.6588 7.91 21.2599 10.2833 20.6911C12.0086 20.2854 13.2548 19.4083 14.0931 18.0097C14.8308 16.7791 15.1843 15.3024 15.5586 13.7389C15.6596 13.3168 15.7641 12.8804 15.8767 12.4488C16.4949 10.0786 17.9399 9.08336 19.101 8.28362C20.7207 7.31188 21.352 5.2438 20.5584 3.32661ZM18.8985 7.40048C18.819 7.45611 18.7365 7.51288 18.6518 7.57124C17.4434 8.40357 15.7885 9.54347 15.0891 12.2243C14.9743 12.6646 14.8688 13.1054 14.7667 13.5317C14.0548 16.5057 13.4399 19.0742 10.1041 19.8587C4.67147 21.2249 -0.192491 15.2584 1.02593 9.48353C1.67322 6.73703 4.12908 3.06627 12.1533 1.1756C13.916 0.758795 15.8003 0.686405 17.3757 1.33454C18.5224 1.80958 19.3863 2.63662 19.8083 3.66334C20.3912 5.08145 20.017 6.61823 18.8985 7.40048Z" fill="#626571"></path><path d="M17.9991 3.1988C16.4356 1.74981 13.8342 2.09137 12.4226 2.42393C8.07355 3.45727 3.18273 5.56446 2.19292 9.88609C1.58387 12.4994 2.86364 15.638 4.84608 17.3649C6.21654 18.5933 8.0849 19.031 9.83518 18.6103C10.9448 18.3493 11.6795 17.885 12.2176 17.1047C12.6747 16.4419 12.9499 15.605 13.1386 14.95C13.3142 14.3405 13.4631 13.7154 13.6072 13.1109C13.7032 12.7082 13.8023 12.2918 13.9077 11.8878C14.289 10.4262 14.9867 9.16006 15.9814 8.12451C16.6393 7.4396 17.319 6.96478 18.1059 6.41501L18.2175 6.33699C18.4543 6.17139 18.6288 5.95175 18.7364 5.6842C19.1011 4.77726 18.6288 3.7824 17.9991 3.1988ZM17.9839 5.35365C17.938 5.46767 17.868 5.55482 17.7636 5.62785L17.6523 5.70566C15.4891 7.0968 13.7826 8.99088 13.1202 11.6634C13.0125 12.0764 12.9122 12.4975 12.8151 12.9046C12.6734 13.4993 12.5269 14.1143 12.357 14.704C12.1866 15.2953 11.9416 16.0458 11.5554 16.6058C11.1369 17.2127 10.5688 17.5632 9.65596 17.778C8.08282 18.1479 6.56249 17.7704 5.37484 16.715C3.4817 15.0325 2.50046 12.3027 2.98862 10.0767C3.93655 6.09798 8.57199 4.24088 12.6021 3.25622C13.88 2.93548 16.2968 2.70598 17.4574 3.83713C17.8688 4.21832 18.1817 4.86164 17.9839 5.35365Z" fill="#626571"></path><path d="M8.34008 10.8281C7.2148 10.8281 6.29931 11.7849 6.29931 12.961C6.41139 15.7906 10.2691 15.7898 10.3808 12.961C10.3808 11.7849 9.46535 10.8281 8.34008 10.8281ZM8.34008 14.2407C7.66491 14.2407 7.11562 13.6667 7.11562 12.961C7.18288 11.2633 9.49752 11.2638 9.56454 12.961C9.5645 13.6667 9.01524 14.2407 8.34008 14.2407Z" fill="#626571"></path></svg>