<svg xmlns="http://www.w3.org/2000/svg" width="22" height="22" viewBox="0 0 22 22" fill="none"><path fill-rule="evenodd" clip-rule="evenodd" d="M10.9997 21.7407C11.4268 21.7407 11.6875 21.8211 11.9277 21.8865C12.1358 21.9432 12.3322 21.9902 12.5716 21.9973C15.8471 22.0939 18.5232 19.5936 19.8969 16.4789C21.2638 13.3806 21.3248 9.70507 19.5092 7.4876C18.3043 6.01591 17.0275 5.36709 15.8405 5.1657C14.4406 4.92805 13.1545 5.32408 12.2246 5.77424C12.2434 5.43781 12.2432 5.01115 12.1847 4.54823C14.3912 4.57393 15.8167 3.97577 16.7402 3.24531C18.2724 2.03351 18.4501 0.428225 18.4501 0.428225C18.4617 0.328168 18.4301 0.228111 18.3626 0.151201C18.2952 0.0742899 18.1979 0.0270865 18.0931 0.0208899C15.6825 -0.123637 14.1323 0.50149 13.1349 1.28627C12.439 1.83376 12.0083 2.46472 11.7455 2.99125C11.5193 2.51338 11.1968 2.0552 10.743 1.66681C9.93277 0.973343 9.11878 1.06939 8.75978 1.37321C8.35839 1.71311 8.26508 2.45834 9.31434 3.04228C9.77635 3.29943 9.93087 3.85458 9.99016 4.40917C10.047 4.94007 10.001 5.48301 9.94892 5.86118C9.00893 5.3773 7.64836 4.91292 6.15875 5.1657C4.97169 5.36709 3.69494 6.01591 2.49002 7.4876C0.675228 9.70398 0.735474 13.3769 2.10041 16.4745C3.4722 19.5881 6.14526 22.089 9.41792 21.9975C9.65852 21.9907 9.85656 21.9439 10.0662 21.8872C10.3089 21.8216 10.5721 21.7407 10.9997 21.7407ZM10.9997 21.006C11.441 21.006 11.7396 21.0727 11.9992 21.1422C12.2014 21.1963 12.3724 21.2563 12.5952 21.2628C15.5678 21.3505 17.9445 19.0191 19.1914 16.1927C20.4452 13.3501 20.5723 9.97572 18.9066 7.94141C17.8514 6.6527 16.7466 6.06549 15.7071 5.88906C13.3271 5.48519 11.3291 7.19163 11.2591 7.25213C11.1149 7.37971 10.89 7.38263 10.7422 7.25377C10.7422 7.25377 8.71511 5.4779 6.29235 5.88906C5.25278 6.06549 4.14783 6.6527 3.09267 7.94141C1.42783 9.97481 1.55402 13.3468 2.80607 16.1885C4.05109 19.0142 6.42558 21.3461 9.39568 21.2632C9.61975 21.2568 9.79308 21.1967 9.99719 21.1423C10.2587 21.0729 10.5588 21.006 10.9997 21.006ZM6.31763 6.63721C6.31763 6.63721 1.85886 8.1931 2.69641 13.3284C2.7291 13.5287 2.92523 13.666 3.1341 13.6346C3.34315 13.6033 3.48607 13.4152 3.45338 13.2149C2.71922 8.71289 6.58275 7.32649 6.58275 7.32649C6.78097 7.25633 6.88265 7.04491 6.80967 6.85482C6.7365 6.66455 6.51604 6.56704 6.31763 6.63721ZM11.4119 6.22751C11.457 5.91567 11.5358 5.13782 11.3673 4.28415C11.2261 3.5688 10.911 2.79569 10.2327 2.21503C9.95709 1.97901 9.69083 1.87112 9.47265 1.87057C9.37022 1.87021 9.27709 1.87877 9.2503 1.94439C9.23661 1.97792 9.25714 2.01546 9.28298 2.05866C9.3533 2.17548 9.49147 2.29139 9.69881 2.40694C10.3634 2.77673 10.6671 3.53636 10.7525 4.33427C10.834 5.09809 10.7266 5.88433 10.658 6.27307C10.7933 6.3611 10.9079 6.44166 10.9997 6.50891C11.1069 6.43017 11.2456 6.33321 11.4119 6.22751ZM12.2233 3.81375C12.3871 3.33552 12.7715 2.52267 13.6209 1.85417C14.4459 1.20499 15.7021 0.701968 17.5965 0.736414C17.4523 1.2048 17.0961 2.01145 16.2527 2.6785C15.4343 3.32586 14.1678 3.83125 12.2233 3.81375Z" fill="#626571"></path></svg>