<svg xmlns="http://www.w3.org/2000/svg" width="22" height="22" viewBox="0 0 22 22" fill="none"><g clip-path="url(#clip0_184_636)"><path d="M7.44759 10.2665C9.01288 10.2665 10.2863 9.1973 10.2863 7.8831C10.2863 7.78585 10.2489 7.69259 10.1824 7.62383C10.1158 7.55506 10.0256 7.51643 9.93147 7.51643C9.83736 7.51643 9.74711 7.55506 9.68056 7.62383C9.61402 7.69259 9.57663 7.78585 9.57663 7.8831C9.57663 8.69922 8.808 9.37844 7.80243 9.50975V8.34603C7.83997 8.32668 7.87598 8.30432 7.91013 8.27915L8.51233 7.83507C8.62284 7.7522 8.71265 7.6433 8.77431 7.51741C8.83597 7.39152 8.86772 7.25226 8.86691 7.11117C8.86691 6.62707 8.50036 6.23321 8.0498 6.23321H6.84534C6.39479 6.23321 6.02824 6.62707 6.02824 7.11117C6.02743 7.25226 6.05917 7.39152 6.12083 7.51741C6.18249 7.6433 6.2723 7.7522 6.38281 7.83507L6.98502 8.27915C7.01917 8.30434 7.0552 8.3267 7.09276 8.34603V9.50975C6.08719 9.37844 5.31856 8.69922 5.31856 7.8831C5.31856 7.78585 5.28117 7.69259 5.21463 7.62383C5.14808 7.55506 5.05783 7.51643 4.96372 7.51643C4.86961 7.51643 4.77936 7.55506 4.71281 7.62383C4.64627 7.69259 4.60888 7.78585 4.60888 7.8831C4.60888 9.1973 5.88231 10.2665 7.44759 10.2665ZM6.79513 7.23803C6.7767 7.22292 6.76194 7.20357 6.75202 7.18152C6.7421 7.15947 6.7373 7.13533 6.73801 7.11103C6.73801 7.03265 6.78724 6.96642 6.84543 6.96642H8.04994C8.10817 6.96642 8.15736 7.03265 8.15736 7.11103C8.15806 7.13534 8.15325 7.15947 8.14332 7.18152C8.1334 7.20357 8.11863 7.22292 8.10019 7.23803L7.49798 7.68207C7.48356 7.69355 7.46587 7.69978 7.44766 7.69978C7.42946 7.69978 7.41176 7.69355 7.39734 7.68207L6.79513 7.23803Z" fill="#626571"></path><path d="M9.57663 6.23308C9.7726 6.23308 9.93147 6.06891 9.93147 5.8664C9.93147 5.6639 9.7726 5.49973 9.57663 5.49973C9.38066 5.49973 9.22179 5.6639 9.22179 5.8664C9.22179 6.06891 9.38066 6.23308 9.57663 6.23308Z" fill="#626571"></path><path d="M5.31856 6.23308C5.51453 6.23308 5.6734 6.06891 5.6734 5.8664C5.6734 5.6639 5.51453 5.49973 5.31856 5.49973C5.12259 5.49973 4.96372 5.6639 4.96372 5.8664C4.96372 6.06891 5.12259 6.23308 5.31856 6.23308Z" fill="#626571"></path><path d="M16.6774 13.5665C16.9581 13.5665 17.2325 13.4805 17.466 13.3193C17.6994 13.1582 17.8813 12.9291 17.9887 12.6611C18.0962 12.3931 18.1243 12.0982 18.0695 11.8137C18.0147 11.5292 17.8795 11.2679 17.681 11.0627C17.4825 10.8576 17.2296 10.7179 16.9543 10.6613C16.679 10.6047 16.3936 10.6338 16.1342 10.7448C15.8749 10.8558 15.6532 11.0438 15.4973 11.285C15.3413 11.5262 15.2581 11.8098 15.2581 12.0998C15.2585 12.4887 15.4081 12.8615 15.6742 13.1365C15.9403 13.4114 16.3011 13.5661 16.6774 13.5665ZM16.6774 11.3665C16.8178 11.3665 16.955 11.4095 17.0717 11.4901C17.1884 11.5707 17.2794 11.6852 17.3331 11.8192C17.3868 11.9532 17.4008 12.1007 17.3735 12.2429C17.3461 12.3852 17.2785 12.5158 17.1792 12.6184C17.08 12.721 16.9535 12.7908 16.8159 12.8191C16.6782 12.8474 16.5355 12.8329 16.4058 12.7774C16.2761 12.7219 16.1653 12.6279 16.0873 12.5073C16.0094 12.3867 15.9677 12.2449 15.9677 12.0998C15.968 11.9054 16.0428 11.719 16.1758 11.5815C16.3089 11.4441 16.4893 11.3667 16.6774 11.3665Z" fill="#626571"></path><path d="M21.6452 14.2999H19.5161V9.53313C19.5162 9.4579 19.4937 9.3845 19.4518 9.32298L16.9679 5.65625C16.9352 5.60795 16.8917 5.56852 16.8411 5.54129C16.7905 5.51406 16.7343 5.49985 16.6772 5.49985C16.6202 5.49985 16.564 5.51406 16.5134 5.54129C16.4628 5.56852 16.4192 5.60795 16.3865 5.65625L13.9027 9.32298C13.8609 9.38454 13.8385 9.45794 13.8387 9.53313V11.8277C13.3528 11.1527 12.7045 10.5926 11.904 10.1606C12.6943 9.2006 13.125 7.95328 13.125 6.59975C13.1269 6.00168 13.0391 5.40691 12.8648 4.8366C13.2104 4.64809 13.5081 4.37796 13.7337 4.04818C13.9592 3.7184 14.1063 3.33827 14.163 2.93869C14.2196 2.53911 14.1842 2.13137 14.0596 1.74859C13.9351 1.36581 13.7248 1.01881 13.4461 0.735787C13.1673 0.452766 12.8278 0.241713 12.4552 0.119783C12.0827 -0.00214586 11.6875 -0.0315103 11.3019 0.0340769C10.9163 0.0996642 10.5511 0.258352 10.236 0.497242C9.92089 0.736132 9.66479 1.04848 9.4885 1.4089C8.82753 1.19845 8.13921 1.09416 7.4476 1.09966C6.75603 1.09416 6.06774 1.19847 5.40683 1.40895C5.23054 1.04853 4.97444 0.736172 4.65935 0.497278C4.34425 0.258384 3.97905 0.0996912 3.59344 0.0340987C3.20782 -0.0314937 2.81266 -0.00213465 2.44009 0.11979C2.06752 0.241714 1.72805 0.452762 1.44927 0.73578C1.17049 1.0188 0.960265 1.3658 0.835693 1.74857C0.71112 2.13135 0.675712 2.5391 0.732345 2.93867C0.788978 3.33825 0.936055 3.71838 1.16162 4.04817C1.38718 4.37795 1.68487 4.64808 2.03048 4.8366C1.85615 5.40691 1.76833 6.00167 1.77017 6.59975C1.77017 7.95328 2.20103 9.20065 2.99121 10.1606C1.26368 11.0929 0.245111 12.6221 0.0361547 14.6128C0.0357112 14.6174 0.0352676 14.622 0.0349571 14.6266L0.000848251 15.1299C-0.00028275 15.1465 -0.00028275 15.1631 0.000848251 15.1796C0.02922 15.6088 0.178493 16.0201 0.430271 16.3627C0.682049 16.7053 1.02533 16.9643 1.41781 17.1078C1.1837 17.6036 1.06282 18.1483 1.06448 18.6999C1.06448 20.5196 2.33791 22 3.90319 22C4.74594 22 5.50365 21.5704 6.02402 20.8903C6.46189 21.1372 6.95275 21.2667 7.45159 21.2667C7.95043 21.2667 8.44129 21.1372 8.87915 20.8903C9.39952 21.5704 10.1572 22 11 22C12.1122 22 13.0765 21.2522 13.5419 20.1666H21.6452C21.7393 20.1666 21.8295 20.128 21.8961 20.0592C21.9626 19.9905 22 19.8972 22 19.8V14.6665C22 14.5693 21.9626 14.476 21.8961 14.4073C21.8295 14.3385 21.7393 14.2999 21.6452 14.2999ZM16.6774 6.50579L18.4798 9.16646H14.875L16.6774 6.50579ZM14.5484 9.8998H18.8064V14.2999H14.8182C14.7623 13.9252 14.6719 13.5568 14.5484 13.1999V9.8998ZM13.4842 17.1052C13.8185 16.9812 14.1178 16.7732 14.355 16.4999H14.9032V17.9666H13.7672C13.7091 17.6681 13.614 17.3785 13.4842 17.1052ZM14.1527 14.6852L14.1847 15.1551C14.1591 15.4655 14.0388 15.7594 13.8411 15.9945C13.6434 16.2297 13.3785 16.3938 13.0847 16.4632C12.6398 15.9034 12.0308 15.5231 11.3473 15.4257C11.2827 13.9343 10.7962 12.5581 10.0014 11.5947C10.5025 11.3759 10.9672 11.077 11.3785 10.709C13.0038 11.5136 13.9616 12.8835 14.1527 14.6852ZM11.7057 0.732986C12.0955 0.732856 12.4746 0.865435 12.7843 1.11023C13.0939 1.35502 13.3169 1.6984 13.4188 2.08728C13.5207 2.47616 13.4958 2.88889 13.3479 3.26167C13.2 3.63445 12.9374 3.94652 12.6007 4.14964C12.3531 3.61328 12.0168 3.12559 11.6072 2.70844C11.1845 2.28001 10.6932 1.93039 10.1552 1.67506C10.3092 1.38977 10.5341 1.15209 10.8066 0.986496C11.0792 0.820905 11.3895 0.733397 11.7057 0.732986ZM1.41533 2.56635C1.41522 2.16017 1.54565 1.76546 1.78613 1.44418C2.02662 1.12289 2.36354 0.893225 2.74402 0.791233C3.12449 0.689241 3.52697 0.720698 3.88827 0.880665C4.24957 1.04063 4.54923 1.32005 4.74022 1.67506C4.20213 1.93037 3.71086 2.27998 3.28817 2.70844C2.87851 3.12556 2.5423 3.61323 2.29462 4.1496C2.02727 3.98774 1.80549 3.75649 1.65125 3.47878C1.49702 3.20108 1.41569 2.88654 1.41533 2.56635ZM3.78579 3.23131C4.68601 2.31655 5.95239 1.833 7.4476 1.833C8.9428 1.833 10.2092 2.31655 11.1094 3.23136C11.9516 4.08708 12.4153 5.2833 12.4153 6.59975C12.4153 7.9162 11.9516 9.11242 11.1094 9.96814C10.2092 10.8829 8.94293 11.3665 7.4476 11.3665C5.95226 11.3665 4.68601 10.8829 3.78579 9.96819C2.94362 9.11242 2.47984 7.9162 2.47984 6.59975C2.47984 5.2833 2.94362 4.08708 3.78579 3.23131ZM0.710571 15.155L0.742418 14.685C0.933632 12.8832 1.89121 11.5135 3.51669 10.7089C3.92974 11.0785 4.39672 11.3784 4.90034 11.5974C4.10785 12.5611 3.62083 13.9413 3.55585 15.4255C2.87176 15.523 2.26206 15.9041 1.81723 16.4646C1.52193 16.3964 1.2554 16.2326 1.05638 15.9971C0.857352 15.7615 0.736213 15.4666 0.710571 15.155ZM3.90319 21.2667C2.72921 21.2667 1.77416 20.1153 1.77416 18.6999C1.77416 17.2846 2.72921 16.1332 3.90319 16.1332C5.07718 16.1332 6.03223 17.2846 6.03223 18.6999C6.03223 20.1153 5.07718 21.2667 3.90319 21.2667ZM7.45159 20.5333C7.08587 20.5321 6.72574 20.4404 6.40126 20.2661C6.62716 19.7771 6.74358 19.2418 6.74191 18.6999C6.74191 17.0234 5.66067 15.6359 4.26637 15.4279C4.33459 13.9978 4.83176 12.6906 5.63011 11.8585C6.22279 12.0224 6.83406 12.1036 7.4476 12.0998C8.06321 12.1037 8.67653 12.022 9.27107 11.8569C10.0719 12.6889 10.5691 13.9909 10.6369 15.4279C9.24259 15.6358 8.16127 17.0233 8.16127 18.6999C8.15959 19.2418 8.27602 19.7771 8.50191 20.2661C8.17743 20.4404 7.81731 20.5321 7.45159 20.5333ZM11 21.2667C9.826 21.2667 8.87094 20.1153 8.87094 18.6999C8.87094 17.2846 9.826 16.1332 11 16.1332C12.174 16.1332 13.129 17.2846 13.129 18.6999C13.129 20.1153 12.174 21.2667 11 21.2667ZM13.8387 18.6999H15.2581C15.3522 18.6999 15.4424 18.6613 15.509 18.5926C15.5755 18.5238 15.6129 18.4305 15.6129 18.3333V16.1332C15.6129 16.036 15.5755 15.9427 15.509 15.874C15.4424 15.8052 15.3522 15.7666 15.2581 15.7666H14.7771C14.8422 15.5774 14.8817 15.3799 14.8945 15.1796C14.8956 15.1631 14.8956 15.1465 14.8945 15.1299L14.8879 15.0332H16.3226V19.4333H13.7672C13.8146 19.1919 13.8386 18.9463 13.8387 18.6999ZM21.2903 19.4333H17.0322V15.0332H21.2903V19.4333Z" fill="#626571"></path><path d="M18.0968 18.6999H20.2258C20.2863 18.6999 20.3458 18.684 20.3986 18.6535C20.4514 18.6231 20.4958 18.5792 20.5276 18.526C20.5594 18.4729 20.5776 18.4122 20.5803 18.3497C20.583 18.2873 20.5702 18.2252 20.5432 18.1693L19.4786 15.9692C19.4492 15.9083 19.4039 15.8571 19.3478 15.8213C19.2918 15.7855 19.2272 15.7666 19.1613 15.7666C19.0954 15.7666 19.0308 15.7855 18.9748 15.8213C18.9187 15.8571 18.8734 15.9083 18.8439 15.9692L17.7794 18.1693C17.7524 18.2252 17.7396 18.2873 17.7423 18.3497C17.745 18.4122 17.7631 18.4729 17.7949 18.526C17.8267 18.5792 17.8711 18.6231 17.924 18.6535C17.9768 18.684 18.0363 18.6999 18.0968 18.6999ZM19.1613 16.9532L19.6517 17.9666H18.6709L19.1613 16.9532Z" fill="#626571"></path></g><defs><clipPath id="clip0_184_636"><rect width="22" height="22" fill="white"></rect></clipPath></defs></svg>