<svg xmlns="http://www.w3.org/2000/svg" width="22" height="22" viewBox="0 0 22 22" fill="none"><path d="M19.5316 13.8496C20.3709 13.2695 20.9 12.2883 20.9 11.2278C20.9 10.26 20.4585 9.34559 19.725 8.75035C20.2166 7.88384 20.4747 6.90441 20.4747 5.89279C20.4747 2.7403 17.9595 0.175485 14.868 0.175485C13.9068 0.175485 12.971 0.424102 12.1392 0.897576C11.6219 0.329657 10.8926 0 10.1218 0C9.32115 0 8.56377 0.360036 8.04582 0.964865C7.32207 0.346759 6.39985 0 5.44843 0C3.21957 0 1.40623 1.84908 1.40623 4.12196C1.40623 5.40062 1.98014 6.54519 2.8791 7.30178C2.82407 8.0744 3.01554 8.84823 3.42984 9.50501C3.81084 10.109 4.35833 10.5791 4.99773 10.8604C4.30735 12.1388 3.44037 13.3209 2.43228 14.3489L0.393711 16.4276C-0.131237 16.963 -0.131237 17.834 0.393711 18.3693L3.55983 21.5979C3.81413 21.8572 4.15228 22 4.51192 22C4.87153 22 5.20968 21.8572 5.46398 21.5979L6.59322 20.4464C8.27968 18.7266 10.4753 17.5633 12.8202 17.1375C12.9203 19.3202 14.6929 21.0647 16.8578 21.0647C19.0867 21.0647 20.9 19.2156 20.9 16.9427C20.8999 15.7378 20.3987 14.6249 19.5316 13.8496ZM3.7283 7.85148C4.25055 8.10298 4.8336 8.24391 5.44843 8.24391C5.68499 8.24391 5.91775 8.22265 6.14622 8.18208L5.95711 8.71086C5.78911 9.18055 5.59776 9.64246 5.38476 10.0944C4.46713 9.71392 3.83427 8.83805 3.7283 7.85148ZM12.8714 16.2573C11.5374 16.4767 10.2453 16.9185 9.05235 17.5545C9.01017 17.3558 8.9133 17.1733 8.76898 17.0261L8.25512 16.5021C8.05682 16.2999 7.79316 16.1886 7.51274 16.1886C7.23231 16.1886 6.96866 16.2999 6.77036 16.5021L5.55002 17.7465C5.38548 17.9143 5.38548 18.1864 5.55002 18.3542C5.71457 18.522 5.9813 18.522 6.14597 18.3542L7.36631 17.1098C7.41911 17.056 7.48071 17.048 7.51278 17.048C7.54485 17.048 7.60645 17.056 7.65925 17.1098L8.17312 17.6339C8.25389 17.7162 8.25389 17.8502 8.17312 17.9326L7.86711 18.2447C7.84765 18.2645 7.83062 18.2859 7.81575 18.3084C7.16527 18.7581 6.55512 19.2698 5.99723 19.8387L4.86799 20.9902C4.67163 21.1904 4.3521 21.1905 4.15574 20.9902L1.91719 18.7075L4.04458 16.5381C4.20913 16.3703 4.20913 16.0982 4.04458 15.9304C3.87999 15.7626 3.61326 15.7626 3.44863 15.9304L1.32124 18.0998L0.989618 17.7616C0.793258 17.5614 0.793258 17.2356 0.989618 17.0353L3.02818 14.9566C4.66775 13.2846 5.95433 11.2266 6.74883 9.00528L7.05921 8.13744C7.37811 8.51621 7.75747 8.82838 8.178 9.06367L7.2313 12.4381C7.17846 12.6264 7.25718 12.8272 7.42265 12.9266C7.48918 12.9665 7.56301 12.986 7.63629 12.986C7.7453 12.986 7.85312 12.9429 7.93437 12.8601L10.8531 9.88386C11.1605 10.206 11.5029 10.4889 11.8773 10.7295C11.8079 11.0347 11.7728 11.347 11.7728 11.6618C11.7728 11.9867 11.8095 12.3052 11.8801 12.6123L9.82381 14.7091C9.70334 14.832 9.66726 15.0168 9.73245 15.1774C9.79768 15.3379 9.95131 15.4426 10.1218 15.4426H12.1775C12.4102 15.4426 12.5989 15.2502 12.5989 15.0129C12.5989 14.7757 12.4102 14.5832 12.1775 14.5832H11.139L12.1963 13.5051C12.4636 14.0512 12.8504 14.5347 13.3367 14.9183C13.1052 15.3351 12.9486 15.7868 12.8714 16.2573ZM8.48915 11.0791L8.96092 9.39759C9.2855 9.49629 9.62488 9.55373 9.97238 9.56662L8.48915 11.0791ZM16.7919 20.2047C15.0818 20.1694 13.6879 18.7435 13.6588 16.9997C13.6471 16.3001 13.8509 15.628 14.2463 15.0592C14.2839 15.0051 14.3127 14.9443 14.324 14.879C14.3552 14.6985 14.2745 14.5265 14.1314 14.436C13.4609 14.0118 12.9817 13.3697 12.7578 12.6286C12.7551 12.6181 12.7519 12.6078 12.7484 12.5976C12.6613 12.2988 12.6156 11.9844 12.6156 11.6619C12.6156 11.3229 12.6669 10.9876 12.7682 10.6653C12.8304 10.4675 12.7511 10.2507 12.5727 10.1504C11.992 9.82414 11.4726 9.36635 11.0708 8.8264C10.9904 8.71829 10.8656 8.6565 10.7352 8.6565C10.7116 8.6565 10.6879 8.65852 10.6642 8.66265C10.4825 8.69431 10.3 8.71034 10.1218 8.71034C9.02197 8.71034 8.01219 8.14388 7.42058 7.19509C7.30471 7.00921 7.06983 6.94286 6.87655 7.0413C6.42989 7.26904 5.94944 7.38449 5.44843 7.38449C3.68426 7.38449 2.24898 5.92089 2.24898 4.12191C2.24898 2.32294 3.68426 0.859377 5.44843 0.859377C6.32232 0.859377 7.16511 1.22912 7.76759 1.87533C7.79569 1.90446 7.82536 1.93265 7.8519 1.96329C8.36678 2.55733 8.651 3.31651 8.65336 4.1119C8.65407 4.3454 8.83404 4.54511 9.06297 4.55147C9.30105 4.55809 9.49615 4.36323 9.49615 4.12196C9.49615 3.19499 9.19314 2.30614 8.63785 1.58327C8.9977 1.13124 9.54317 0.859377 10.1218 0.859377C10.7496 0.859377 11.3378 1.17477 11.6953 1.70307C11.825 1.89471 12.0807 1.94627 12.272 1.81913C13.1004 1.269 14.0726 0.997006 15.069 1.03916C17.6003 1.14628 19.6209 3.28789 19.6318 5.87139C19.636 6.85168 19.3549 7.79678 18.8199 8.60541C18.8054 8.62067 18.7916 8.63682 18.7792 8.65461C17.8797 9.94505 16.4489 10.7276 14.9489 10.7505C14.7254 10.7539 14.531 10.9245 14.5167 11.152C14.501 11.4029 14.6958 11.6101 14.9371 11.6101C14.9387 11.6101 14.9404 11.6101 14.942 11.6101C16.595 11.591 18.1755 10.7921 19.2397 9.45559C19.751 9.88962 20.0572 10.5403 20.0572 11.2279C20.0572 12.183 19.468 13.0498 18.591 13.385C18.44 13.4428 18.3345 13.5832 18.3193 13.7469C18.3042 13.9106 18.3819 14.0688 18.5196 14.1543C19.4825 14.7524 20.0572 15.7949 20.0572 16.9428C20.0572 18.7641 18.586 20.2417 16.7919 20.2047Z" fill="#626571"></path><path d="M14.8877 2.2432L14.8679 2.24315C14.6352 2.24315 14.4465 2.43557 14.4465 2.67284C14.4465 2.91011 14.6353 3.10253 14.868 3.10253L14.8814 3.10257C14.8825 3.10257 14.8836 3.10257 14.8846 3.10257C15.1159 3.10257 15.3042 2.91226 15.3059 2.67606C15.3077 2.43879 15.1204 2.24496 14.8877 2.2432Z" fill="#626571"></path><path d="M16.6973 2.75528C16.4974 2.63393 16.2387 2.70075 16.1196 2.9046C16.0005 3.10848 16.066 3.37218 16.266 3.49365C17.0915 3.99502 17.6043 4.91433 17.6043 5.89282C17.6043 6.13009 17.793 6.32251 18.0256 6.32251C18.2583 6.32251 18.447 6.13009 18.447 5.89282C18.447 4.61308 17.7766 3.41085 16.6973 2.75528Z" fill="#626571"></path><path d="M5.21365 14.7379C5.13528 14.658 5.02698 14.612 4.91574 14.612C4.80492 14.612 4.69621 14.658 4.61783 14.7379C4.5395 14.8178 4.49437 14.9287 4.49437 15.0421C4.49437 15.1552 4.53945 15.266 4.61783 15.3459C4.69621 15.4258 4.80492 15.4714 4.91574 15.4714C5.02698 15.4714 5.13528 15.4258 5.21365 15.3459C5.29241 15.2656 5.33712 15.1552 5.33712 15.0421C5.33712 14.9287 5.29241 14.8182 5.21365 14.7379Z" fill="#626571"></path></svg>