<svg xmlns="http://www.w3.org/2000/svg" width="123" height="49" viewBox="0 0 123 49" fill="none"><path d="M50.9942 39.9999V36.7144L64.0596 18.382H50.9688V13.8181H71.0139V17.1036L57.936 35.436H71.0399V39.9999H50.9942Z" fill="black"></path><path d="M75.185 40V20.3637H80.631V40H75.185ZM77.921 17.8324C77.111 17.8324 76.417 17.564 75.837 17.027C75.266 16.4816 74.98 15.8296 74.98 15.0711C74.98 14.3211 75.266 13.6776 75.837 13.1407C76.417 12.5952 77.111 12.3225 77.921 12.3225C78.73 12.3225 79.421 12.5952 79.992 13.1407C80.571 13.6776 80.861 14.3211 80.861 15.0711C80.861 15.8296 80.571 16.4816 79.992 17.027C79.421 17.564 78.73 17.8324 77.921 17.8324Z" fill="black"></path><path d="M90.4401 13.8181V39.9999H84.9941V13.8181H90.4401Z" fill="black"></path><path d="M100.248 13.8181V39.9999H94.8018V13.8181H100.248Z" fill="black"></path><path d="M107.973 47.3635C107.283 47.3635 106.635 47.3081 106.03 47.1973C105.433 47.095 104.939 46.9629 104.547 46.801L105.774 42.7356C106.413 42.9317 106.989 43.0382 107.5 43.0552C108.02 43.0723 108.467 42.953 108.842 42.6973C109.226 42.4416 109.537 42.0069 109.776 41.3933L110.095 40.5623L103.051 20.3635H108.778L112.844 34.7839H113.048L117.152 20.3635H122.918L115.286 42.122C114.919 43.1788 114.42 44.0993 113.79 44.8834C113.168 45.676 112.379 46.2854 111.425 46.7115C110.47 47.1462 109.32 47.3635 107.973 47.3635Z" fill="black"></path><path d="M41.9767 44.862C42.0482 45.253 42.031 45.655 41.9264 46.0386C41.8219 46.4221 41.6325 46.7774 41.3723 47.0784C41.1121 47.3793 40.7876 47.6183 40.4227 47.7778C40.0578 47.9373 39.6617 48.0132 39.2636 48H2.75043C2.35253 48.0135 1.95663 47.9376 1.59193 47.7781C1.22733 47.6186 0.903127 47.3794 0.643527 47.0783C0.383827 46.7771 0.195224 46.4216 0.0916244 46.038C-0.0119756 45.6544 -0.0279751 45.2525 0.0449249 44.862L3.79623 13.4971C3.95333 12.6373 4.40063 11.8571 5.06383 11.2862C5.72703 10.7153 6.56613 10.3881 7.44153 10.3591H34.5725C35.4506 10.3847 36.2932 10.7104 36.9595 11.2816C37.6258 11.8528 38.0753 12.6349 38.2329 13.4971L41.9767 44.862Z" fill="#1B8057"></path><path d="M21.0069 38.8772C15.5503 38.8772 10.0332 35.2099 10.0332 28.208C10.0332 27.7869 10.2009 27.383 10.4993 27.0852C10.7978 26.7874 11.2026 26.6201 11.6247 26.6201C12.0468 26.6201 12.4516 26.7874 12.75 27.0852C13.0485 27.383 13.2162 27.7869 13.2162 28.208C13.2162 33.3573 17.2555 35.7014 21.0069 35.7014C24.7582 35.7014 28.8051 33.3573 28.8051 28.208C28.833 27.8048 29.0132 27.4272 29.3093 27.1514C29.6054 26.8757 29.9953 26.7223 30.4004 26.7223C30.8055 26.7223 31.1954 26.8757 31.4915 27.1514C31.7876 27.4272 31.9678 27.8048 31.9957 28.208C31.9881 35.2099 26.4634 38.8772 21.0069 38.8772Z" fill="white"></path><path d="M30.389 12.2571C29.9669 12.2571 29.5621 12.0898 29.2637 11.792C28.9652 11.4942 28.7976 11.0903 28.7976 10.6692C28.8051 5.5198 24.7582 3.1758 21.0069 3.1758C17.2555 3.1758 13.2162 5.5198 13.2162 10.6692C13.2162 11.0903 13.0485 11.4942 12.75 11.792C12.4516 12.0898 12.0468 12.2571 11.6247 12.2571C11.2026 12.2571 10.7978 12.0898 10.4993 11.792C10.2009 11.4942 10.0332 11.0903 10.0332 10.6692C10.0332 3.6673 15.5503 0 21.0069 0C26.4634 0 31.9881 3.6673 31.9881 10.6692C31.9861 11.091 31.8167 11.4949 31.5171 11.7925C31.2174 12.09 30.8118 12.2571 30.389 12.2571Z" fill="#FFCC1D"></path><path d="M14.239 22.1436C14.239 22.6614 14.085 23.1675 13.7965 23.5979C13.5081 24.0283 13.0981 24.3636 12.6185 24.5614C12.139 24.7592 11.6113 24.8106 11.1025 24.709C10.5936 24.6075 10.1264 24.3575 9.75998 23.9909C9.39358 23.6242 9.14448 23.1574 9.04408 22.6494C8.94378 22.1414 8.99678 21.6151 9.19648 21.1372C9.39608 20.6592 9.73338 20.2512 10.1656 19.9646C10.5978 19.678 11.1055 19.5259 11.6244 19.5274C11.9684 19.5274 12.309 19.5951 12.6267 19.7267C12.9444 19.8582 13.233 20.0511 13.4759 20.2941C13.7188 20.5371 13.9112 20.8256 14.0421 21.143C14.1731 21.4604 14.24 21.8004 14.239 22.1436Z" fill="white"></path><path d="M27.494 24.5332C27.1504 24.5316 26.8166 24.419 26.5424 24.2124C26.2682 24.0057 26.0684 23.7161 25.9729 23.3868C25.8774 23.0574 25.8912 22.7061 26.0124 22.3853C26.1336 22.0645 26.3556 21.7914 26.6452 21.6069C26.7968 21.5086 30.4345 19.2478 33.8221 21.6599C34.0053 21.7754 34.1629 21.927 34.2853 22.1054C34.4076 22.2838 34.4922 22.4853 34.5338 22.6975C34.5754 22.9097 34.5731 23.1282 34.5271 23.3394C34.4811 23.5507 34.3923 23.7504 34.2662 23.9262C34.1401 24.1021 33.9793 24.2504 33.7937 24.362C33.6082 24.4737 33.4017 24.5463 33.187 24.5755C32.9723 24.6048 32.7538 24.5899 32.5451 24.5319C32.3363 24.4739 32.1416 24.374 31.9729 24.2383C30.3511 23.0814 28.3655 24.2761 28.3428 24.2912C28.0902 24.4541 27.7947 24.5384 27.494 24.5332Z" fill="white"></path></svg>