<svg xmlns="http://www.w3.org/2000/svg" width="124" height="49" viewBox="0 0 124 49" fill="none"><path d="M51.5943 40.0001V36.7141L64.6597 18.3821H51.5688V13.8181H71.614V17.1041L58.5361 35.4361H71.64V40.0001H51.5943Z" fill="white"></path><path d="M75.7851 40V20.364H81.2311V40H75.7851ZM78.5211 17.832C77.7111 17.832 77.0171 17.564 76.4371 17.027C75.8661 16.481 75.5801 15.829 75.5801 15.071C75.5801 14.321 75.8661 13.678 76.4371 13.141C77.0171 12.595 77.7111 12.322 78.5211 12.322C79.3301 12.322 80.0211 12.595 80.5921 13.141C81.1711 13.678 81.4611 14.321 81.4611 15.071C81.4611 15.829 81.1711 16.481 80.5921 17.027C80.0211 17.564 79.3301 17.832 78.5211 17.832Z" fill="white"></path><path d="M91.0402 13.8181V40.0001H85.5942V13.8181H91.0402Z" fill="white"></path><path d="M100.848 13.8181V40.0001H95.4019V13.8181H100.848Z" fill="white"></path><path d="M108.573 47.364C107.883 47.364 107.235 47.308 106.63 47.197C106.033 47.095 105.539 46.963 105.147 46.801L106.374 42.736C107.013 42.932 107.589 43.038 108.1 43.055C108.62 43.072 109.067 42.953 109.442 42.697C109.826 42.442 110.137 42.007 110.376 41.393L110.695 40.562L103.651 20.364H109.378L113.444 34.784H113.648L117.752 20.364H123.518L115.886 42.122C115.519 43.179 115.02 44.099 114.39 44.883C113.768 45.676 112.979 46.285 112.025 46.712C111.07 47.146 109.92 47.364 108.573 47.364Z" fill="white"></path><path d="M41.1865 45.028L41.1917 45.071L41.1995 45.114C41.2333 45.299 41.2252 45.489 41.1758 45.67C41.1263 45.852 41.0367 46.02 40.9132 46.163C40.7898 46.305 40.6357 46.419 40.462 46.495C40.2884 46.571 40.0998 46.607 39.9101 46.601L39.8868 46.6H39.8636H3.35039H3.32669L3.30299 46.601C3.11389 46.607 2.92599 46.571 2.75299 46.495C2.57999 46.42 2.42659 46.306 2.30379 46.164C2.18099 46.022 2.09199 45.854 2.04319 45.673C1.99439 45.492 1.98679 45.303 2.02119 45.119L2.02949 45.074L2.03499 45.028L5.78059 13.711C5.88599 13.182 6.16599 12.701 6.57709 12.347C6.99289 11.989 7.51809 11.782 8.06729 11.759H35.1498C35.7016 11.779 36.2299 11.986 36.6483 12.344C37.0614 12.699 37.3427 13.18 37.4485 13.711L41.1865 45.028Z" stroke="white" stroke-width="2.8"></path><path d="M21.607 38.8771C16.1504 38.8771 10.6333 35.2101 10.6333 28.2081C10.6333 27.7871 10.801 27.3831 11.0994 27.0851C11.3979 26.7871 11.8027 26.6201 12.2248 26.6201C12.6469 26.6201 13.0517 26.7871 13.3501 27.0851C13.6486 27.3831 13.8163 27.7871 13.8163 28.2081C13.8163 33.3571 17.8556 35.7011 21.607 35.7011C25.3583 35.7011 29.4052 33.3571 29.4052 28.2081C29.4331 27.8051 29.6133 27.4271 29.9094 27.1511C30.2055 26.8761 30.5954 26.7221 31.0005 26.7221C31.4056 26.7221 31.7955 26.8761 32.0916 27.1511C32.3877 27.4271 32.5679 27.8051 32.5958 28.2081C32.5882 35.2101 27.0635 38.8771 21.607 38.8771Z" fill="white"></path><path d="M30.9891 12.257C30.567 12.257 30.1622 12.09 29.8638 11.792C29.5653 11.494 29.3977 11.09 29.3977 10.669C29.4052 5.5198 25.3583 3.1758 21.607 3.1758C17.8556 3.1758 13.8163 5.5198 13.8163 10.669C13.8163 11.09 13.6486 11.494 13.3501 11.792C13.0517 12.09 12.6469 12.257 12.2248 12.257C11.8027 12.257 11.3979 12.09 11.0994 11.792C10.801 11.494 10.6333 11.09 10.6333 10.669C10.6333 3.6673 16.1504 0 21.607 0C27.0635 0 32.5882 3.6673 32.5882 10.669C32.5862 11.091 32.4168 11.495 32.1172 11.792C31.8175 12.09 31.4119 12.257 30.9891 12.257Z" fill="white"></path><path d="M14.8391 22.1441C14.8391 22.6611 14.6851 23.1681 14.3966 23.5981C14.1082 24.0281 13.6982 24.3641 13.2186 24.5611C12.7391 24.7591 12.2114 24.8111 11.7026 24.7091C11.1937 24.6071 10.7265 24.3581 10.3601 23.9911C9.99368 23.6241 9.74458 23.1571 9.64418 22.6491C9.54388 22.1411 9.59688 21.6151 9.79658 21.1371C9.99618 20.6591 10.3335 20.2511 10.7657 19.9651C11.1979 19.6781 11.7056 19.5261 12.2245 19.5271C12.5685 19.5271 12.9091 19.5951 13.2268 19.7271C13.5445 19.8581 13.8331 20.0511 14.076 20.2941C14.3189 20.5371 14.5113 20.8261 14.6422 21.1431C14.7732 21.4601 14.8401 21.8001 14.8391 22.1441Z" fill="white"></path><path d="M28.0941 24.533C27.7505 24.531 27.4167 24.419 27.1425 24.212C26.8683 24.006 26.6685 23.716 26.573 23.387C26.4775 23.057 26.4913 22.706 26.6125 22.385C26.7337 22.064 26.9557 21.791 27.2453 21.607C27.3969 21.509 31.0346 19.248 34.4222 21.66C34.6054 21.775 34.763 21.927 34.8854 22.105C35.0077 22.284 35.0923 22.485 35.1339 22.697C35.1755 22.91 35.1732 23.128 35.1272 23.339C35.0812 23.551 34.9924 23.75 34.8663 23.926C34.7402 24.102 34.5794 24.25 34.3938 24.362C34.2083 24.474 34.0018 24.546 33.7871 24.575C33.5724 24.605 33.3539 24.59 33.1452 24.532C32.9364 24.474 32.7417 24.374 32.573 24.238C30.9512 23.081 28.9656 24.276 28.9429 24.291C28.6903 24.454 28.3948 24.538 28.0941 24.533Z" fill="white"></path></svg>