<svg xmlns="http://www.w3.org/2000/svg" id="Layer_1" data-name="Layer 1" viewBox="0 0 32 32"><defs><style>.cls-1{fill:#407093;}.cls-2{fill:#365e7d;}.cls-3{fill:#d3effb;}.cls-4{fill:#b1e4f9;}.cls-5{fill:#80b4fb;}.cls-6{fill:#61a2f9;}.cls-7{fill:#4a80aa;}.cls-8{fill:#95d6a4;}.cls-9{fill:#78c2a4;}.cls-10{fill:#ffd064;}.cls-11{fill:#ffc250;}.cls-12{fill:#db5b6f;}.cls-13{fill:#d54653;}.cls-14{fill:#ececec;}</style></defs><path class="cls-1" d="M18.89,12.86a1.74,1.74,0,0,0-.4-.92,14.86,14.86,0,0,0-4-3.36v-2H6.37v2a14.86,14.86,0,0,0-4,3.36,1.82,1.82,0,0,0-.4.92,75.74,75.74,0,0,0-.48,14.21,4.82,4.82,0,0,0,4.81,4.46h8.3a4.81,4.81,0,0,0,4.8-4.46A74,74,0,0,0,18.89,12.86Z"></path><path class="cls-2" d="M6,12.86c-.12,1.78-.49,7.92-.25,14.21.1,2.52,1.2,4.46,2.52,4.46h-2a4.82,4.82,0,0,1-4.81-4.46,75.74,75.74,0,0,1,.48-14.21,1.82,1.82,0,0,1,.4-.92,14.86,14.86,0,0,1,4-3.36v-2H8.3v2a11.59,11.59,0,0,0-2.12,3.36A3.11,3.11,0,0,0,6,12.86Z"></path><path class="cls-3" d="M18.49,11.94H2.34a14.86,14.86,0,0,1,4-3.36v-2h8.09v2A14.86,14.86,0,0,1,18.49,11.94Z"></path><path class="cls-4" d="M8.3,6.61H6.37v2a14.86,14.86,0,0,0-4,3.36H6.18A11.59,11.59,0,0,1,8.3,8.58Z"></path><path class="cls-5" d="M14.12,4.13H6.71a1.24,1.24,0,0,0,0,2.48h7.41a1.24,1.24,0,0,0,0-2.48Z"></path><path class="cls-6" d="M8.32,6.24a1.21,1.21,0,0,0,.88.37H6.71A1.26,1.26,0,0,1,5.47,5.37,1.24,1.24,0,0,1,6.71,4.13H9.2a1.24,1.24,0,0,0-.88,2.11Z"></path><path class="cls-7" d="M5,26a1.35,1.35,0,1,0-1.34-1.35A1.35,1.35,0,0,0,5,26Z"></path><path class="cls-7" d="M7.33,21.66a1,1,0,1,0-1-1A1,1,0,0,0,7.33,21.66Z"></path><path class="cls-7" d="M10.89,29a1,1,0,1,0-1-1A1,1,0,0,0,10.89,29Z"></path><path class="cls-8" d="M24.52,17.44a1.4,1.4,0,0,0,1.05,1.29,2,2,0,0,1,1.26,1.67A26.55,26.55,0,0,1,26,30.07a2.09,2.09,0,0,1-2,1.46h-7.2a2.08,2.08,0,0,1-2-1.46A26.33,26.33,0,0,1,14,20.4a1.93,1.93,0,0,1,1.25-1.67,1.41,1.41,0,0,0,1.06-1.29c0-.57-.59-.94-1.14-1.17A2,2,0,0,1,14,14.82c0-.19-.07-.39-.11-.59-.24-1.48-.35-3-.4-3.72a1.92,1.92,0,0,1,.25-1.08c.1-.18.22-.36.33-.53A12.84,12.84,0,0,1,18,5.44V1.52h4.83V5.44A12.84,12.84,0,0,1,26.75,8.9c.12.17.23.35.34.53a1.91,1.91,0,0,1,.24,1.08,37.17,37.17,0,0,1-.4,3.72c0,.2-.07.4-.1.59a2,2,0,0,1-1.18,1.45C25.11,16.5,24.52,16.87,24.52,17.44Z"></path><path class="cls-9" d="M19.37,3.2V5.44a9.44,9.44,0,0,0-2.89,4,2.92,2.92,0,0,0-.14,1.08c0,.87.11,2.65.3,4.31a2.06,2.06,0,0,0,.69,1.45A1.4,1.4,0,0,1,18,17.44a1.41,1.41,0,0,1-.61,1.28,2.07,2.07,0,0,0-.75,1.65,40.2,40.2,0,0,0,.8,11.16h-.61a2.07,2.07,0,0,1-2-1.45A26.57,26.57,0,0,1,14,20.37a1.93,1.93,0,0,1,1.27-1.65,1.38,1.38,0,0,0,1-1.28c0-.57-.59-1-1.14-1.17A2,2,0,0,1,14,14.82a35.14,35.14,0,0,1-.51-4.31,1.92,1.92,0,0,1,.25-1.08,12.35,12.35,0,0,1,4.24-4V3.2Z"></path><path class="cls-10" d="M27.33,10.51a37.17,37.17,0,0,1-.4,3.72h-13c-.24-1.48-.35-3-.4-3.72a1.92,1.92,0,0,1,.25-1.08c.1-.18.22-.36.33-.53H26.75c.12.17.23.35.34.53A1.91,1.91,0,0,1,27.33,10.51Z"></path><path class="cls-10" d="M22.28.47H18.57a1,1,0,0,0-1.05,1.05V3.2h5.81V1.52A1,1,0,0,0,22.28.47Z"></path><path class="cls-11" d="M20.65.47a1,1,0,0,0-1,1.05V3.2H17.52V1.52a1,1,0,0,1,1.05-1Z"></path><path class="cls-11" d="M16.34,10.51c0,.77.09,2.24.24,3.72H13.92c-.24-1.48-.35-3-.4-3.72a1.92,1.92,0,0,1,.25-1.08c.1-.18.22-.36.33-.53h2.59c-.07.17-.14.34-.21.53A2.92,2.92,0,0,0,16.34,10.51Z"></path><path class="cls-12" d="M31,27.21c-.06,1-.15,2-.29,3a1.52,1.52,0,0,1-1.51,1.32h-5.5a1.52,1.52,0,0,1-1.51-1.32,36.84,36.84,0,0,1,0-10.06,1.52,1.52,0,0,1,1.51-1.31h5.5a1.52,1.52,0,0,1,1.51,1.31c.11.82.2,1.64.25,2.46A37.16,37.16,0,0,1,31,27.21Z"></path><path class="cls-13" d="M24.39,30.72a1.69,1.69,0,0,0,.35.81h-1a1.52,1.52,0,0,1-1.51-1.32,36.84,36.84,0,0,1,0-10.06,1.52,1.52,0,0,1,1.51-1.31h1a1.65,1.65,0,0,0-.35.81A40.24,40.24,0,0,0,24.39,30.72Z"></path><path class="cls-14" d="M31,27.21a2.85,2.85,0,1,1-1.7-5.14,2.82,2.82,0,0,1,1.66.54A37.16,37.16,0,0,1,31,27.21Z"></path><path d="M3.21,24.64A1.82,1.82,0,1,0,5,22.82,1.81,1.81,0,0,0,3.21,24.64Zm2.69,0A.88.88,0,1,1,5,23.76.88.88,0,0,1,5.9,24.64Z"></path><path d="M7.33,22.13A1.43,1.43,0,1,0,5.9,20.7,1.43,1.43,0,0,0,7.33,22.13Zm0-1.92a.49.49,0,1,1-.49.49A.49.49,0,0,1,7.33,20.21Z"></path><path d="M12.32,28a1.43,1.43,0,1,0-1.43,1.43A1.43,1.43,0,0,0,12.32,28ZM10.4,28a.49.49,0,0,1,.49-.49.49.49,0,1,1,0,1A.49.49,0,0,1,10.4,28Z"></path><path d="M31.18,20.09a2,2,0,0,0-2-1.72h-.33l.32-.83a.47.47,0,0,0-.27-.61.48.48,0,0,0-.61.27l-.45,1.17H25.92l-.2-.09c-.48-.18-.73-.46-.73-.84s.59-.63.85-.74a2.43,2.43,0,0,0,1.45-1.79,37,37,0,0,0,.51-4.37,2.43,2.43,0,0,0-.31-1.35,12.46,12.46,0,0,0-4.18-4V3.67h0a.47.47,0,0,0,.47-.47V1.52A1.52,1.52,0,0,0,22.28,0H18.57a1.52,1.52,0,0,0-1.52,1.52V3.2a.47.47,0,0,0,.47.47h0v1.5a14.09,14.09,0,0,0-2.62,2V6.87a1.71,1.71,0,0,0-.81-3.21H6.71A1.71,1.71,0,0,0,5.9,6.87V8.31A15.36,15.36,0,0,0,2,11.64a2.25,2.25,0,0,0-.5,1.16c-.08.58-.2,1.53-.31,2.75a.48.48,0,0,0,.43.51h0a.48.48,0,0,0,.47-.43c.11-1.2.22-2.13.29-2.7a1.4,1.4,0,0,1,.19-.53H13.21c.08.78.2,1.66.36,2.51A2.42,2.42,0,0,0,15,16.7c.25.11.85.39.85.74s-.25.66-.74.84a2.44,2.44,0,0,0-1.57,2,27.1,27.1,0,0,0,.84,9.9,2.33,2.33,0,0,0,.44.82H6.27a4.35,4.35,0,0,1-4.34-4,66.3,66.3,0,0,1,0-9.55A.47.47,0,0,0,1,17.42a69.77,69.77,0,0,0,0,9.69A5.29,5.29,0,0,0,6.27,32h8.3a5.39,5.39,0,0,0,1.33-.17,2.6,2.6,0,0,0,.93.17H29.21a2,2,0,0,0,2-1.72A37,37,0,0,0,31.18,20.09ZM30.55,27a2.43,2.43,0,0,1-1.24.34,2.38,2.38,0,1,1,0-4.76,2.32,2.32,0,0,1,1.21.33A34.87,34.87,0,0,1,30.55,27ZM26.87,10.48c-.05.72-.15,2-.34,3.28H14.32c-.19-1.3-.29-2.56-.33-3.28a1.39,1.39,0,0,1,.19-.82,2.75,2.75,0,0,1,.17-.29H26.5l.18.29A1.46,1.46,0,0,1,26.87,10.48Zm-20-3.4H14v1H6.84ZM18,1.52a.58.58,0,0,1,.58-.58h3.71a.59.59,0,0,1,.59.58V2.74H18Zm4.38,2.15V5H18.48V3.67ZM18.14,5.91h4.58a13.25,13.25,0,0,1,3.07,2.52H15.06A13,13,0,0,1,18.14,5.91ZM6.71,4.6h7.41a.77.77,0,1,1,0,1.54H6.71a.77.77,0,0,1,0-1.54ZM3.4,11.47A14.59,14.59,0,0,1,6.49,9.05h7l-.09.14a2.43,2.43,0,0,0-.31,1.35c0,.25,0,.57.07.93ZM29.21,31.06H23.7a1.05,1.05,0,0,1-1-.91c-.07-.54-.13-1.08-.18-1.61a.46.46,0,0,0-.51-.42.47.47,0,0,0-.43.51c.05.54.12,1.1.19,1.65a1.94,1.94,0,0,0,.29.78H16.83a1.6,1.6,0,0,1-1.54-1.12,26.19,26.19,0,0,1-.8-9.52,1.49,1.49,0,0,1,1-1.26,1.85,1.85,0,0,0,1.34-1.72c0-.46-.24-1.12-1.42-1.61a1.45,1.45,0,0,1-.89-1.09v0H26.37v0a1.5,1.5,0,0,1-.89,1.09c-1.18.49-1.43,1.15-1.43,1.61a1.67,1.67,0,0,0,.28.93h-.62a2,2,0,0,0-2,1.72,38,38,0,0,0-.31,6.65.47.47,0,0,0,.49.45.46.46,0,0,0,.44-.49,36.94,36.94,0,0,1,.31-6.48,1.06,1.06,0,0,1,1.05-.91h5.5a1.07,1.07,0,0,1,1.05.91c.07.52.13,1.05.18,1.58a3.32,3.32,0,1,0-1.13,6.44A3.28,3.28,0,0,0,30.48,28c-.05.71-.13,1.41-.22,2.12A1.07,1.07,0,0,1,29.21,31.06Z"></path></svg>