<svg xmlns="http://www.w3.org/2000/svg" id="Layer_1" data-name="Layer 1" viewBox="0 0 25 32"><defs><style>.cls-1{fill:#fe9b55;}.cls-2{fill:#ffd66b;}.cls-3{fill:#ea8947;}.cls-4{fill:#ef715d;}.cls-5{fill:#e8bb56;}.cls-6{fill:#dd584a;}</style></defs><path class="cls-1" d="M23.58,16.31A6.07,6.07,0,0,1,12.08,19a6.07,6.07,0,1,1-6.95-8.58c.69-2.73,3.56-4.77,7-4.77s6.28,2,7,4.77A6.07,6.07,0,0,1,23.58,16.31Z"></path><path class="cls-2" d="M18.59,31.44h-13A2.67,2.67,0,0,1,3,29.25L1,18.37,3.23,16.5a2.64,2.64,0,0,1,3.53.12L8.19,18a.52.52,0,0,0,.73,0l1.33-1.28a2.63,2.63,0,0,1,3.68,0L15.22,18A.54.54,0,0,0,16,18l1.48-1.42A2.64,2.64,0,0,1,21,16.47l2.24,1.89-2,10.87A2.67,2.67,0,0,1,18.59,31.44Z"></path><path class="cls-3" d="M5.13,10.44a6.06,6.06,0,0,0,0,11.73c-.09-.74-.2-1.43-.32-2-.67-3,1.09-7.52,3.21-7.61,1.26-.05,2.72-3.83,3.68-6.87C8.44,5.84,5.79,7.82,5.13,10.44Z"></path><path class="cls-4" d="M12.09,6.71A1.75,1.75,0,1,0,10.34,5,1.75,1.75,0,0,0,12.09,6.71Z"></path><path class="cls-5" d="M6.77,30.47c-1.28-1-1.34-7.27-2-10.3a8.4,8.4,0,0,1,.33-4.28,2.6,2.6,0,0,0-1.87.61L1,18.37,3,29.25a2.67,2.67,0,0,0,2.63,2.19H8.48A9.3,9.3,0,0,1,6.77,30.47Z"></path><path class="cls-6" d="M12.73,3.33a1.82,1.82,0,0,0-.65-.12,1.75,1.75,0,0,0-.66,3.37Z"></path><path d="M19.51,10A7.19,7.19,0,0,0,14.36,5.4a2,2,0,0,0,0-.43,2.33,2.33,0,0,0-1.65-2.22,1.44,1.44,0,0,1,.48-1,3.21,3.21,0,0,1,1.45-.57.55.55,0,0,0,.51-.61h0a.56.56,0,0,0-.6-.52h0a4.25,4.25,0,0,0-2.06.8,2.54,2.54,0,0,0-.92,1.89A2.33,2.33,0,0,0,9.82,5.41,7.15,7.15,0,0,0,4.67,10,6.62,6.62,0,0,0,0,16.31,6.32,6.32,0,0,0,.5,18.78L2.4,29.34A3.24,3.24,0,0,0,5.59,32h13a3.23,3.23,0,0,0,3.18-2.66l1.91-10.6A6.62,6.62,0,0,0,20,10.14,3.26,3.26,0,0,0,19.51,10ZM12.08,3.78A1.17,1.17,0,0,1,13.27,5h0a1.21,1.21,0,0,1-.72,1.09,1.22,1.22,0,0,1-.46.09,1.18,1.18,0,0,1-.46-.09,1.2,1.2,0,0,1-.58-.53,1.18,1.18,0,0,1,.47-1.61A1.19,1.19,0,0,1,12.08,3.78Zm-6.5,27.1A2.11,2.11,0,0,1,3.5,29.15L1.61,18.59l2-1.66a2.07,2.07,0,0,1,2.78.1L7.8,18.42l.06.06.07.05.13.08,1,12.27Zm8.4,0h-3.8l-1-12.35.13-.1,1.32-1.29a2,2,0,0,1,2.88,0l1.3,1.26.17.14Zm7.62-7-.94,5.25a2.11,2.11,0,0,1-2.07,1.73H15.13l1-12.29.1-.06.12-.1L17.81,17a2.06,2.06,0,0,1,2.76-.1l2,1.67Zm1.31-6.5L21.3,16.06A3.18,3.18,0,0,0,17,16.2l-1.45,1.39-1.27-1.24a3.18,3.18,0,0,0-2.23-.91,3.06,3.06,0,0,0-2.22.9L8.56,17.6,7.15,16.23a3.19,3.19,0,0,0-4.3-.15L1.26,17.42a5.49,5.49,0,0,1,4-6.43l.32-.09.08-.32a6.07,6.07,0,0,1,4.64-4.14,2.36,2.36,0,0,0,1.78.84,2.34,2.34,0,0,0,1.77-.84,6.05,6.05,0,0,1,4.65,4.14l.08.33.32.09a5.5,5.5,0,0,1,4,6.42Z"></path></svg>