<svg xmlns="http://www.w3.org/2000/svg" id="Layer_1" data-name="Layer 1" viewBox="0 0 30 31"><defs><style>.cls-1{fill:#d3effb;}.cls-2{fill:#75cef9;}.cls-3{fill:#6bbef6;}.cls-4{fill:#90d8f9;}.cls-5{fill:#fff9e2;}.cls-6{fill:#ffe07d;}.cls-7{fill:#f1f1f4;}.cls-8{fill:#fa955a;}.cls-9{fill:#f67f58;}.cls-10{fill:#f2f5fb;}.cls-11{fill:#e6e8f0;}.cls-12{fill:#ffac7b;}.cls-13{fill:#80d57b;}</style></defs><path class="cls-1" d="M5,3.29.79,9a1,1,0,0,0-.14.27H11.16l4.42-6Z"></path><path class="cls-2" d="M19.8,9,15.58,3.29l-4.42,6h8.78A1,1,0,0,0,19.8,9Z"></path><path class="cls-3" d="M14.44,4.84,11.16,9.25h8.78a.14.14,0,0,0,0-.06Z"></path><path class="cls-2" d="M11.16,9.25V29.59h8.75a.09.09,0,0,0,.09-.1V9.6a1,1,0,0,0-.06-.35Z"></path><path class="cls-4" d="M14.68.47H5.91a.9.9,0,0,0-.9.9V3.29H15.58V1.37A.9.9,0,0,0,14.68.47Z"></path><path class="cls-4" d="M8.19,17.29a6,6,0,0,1,3,.89V9.25H.65a1,1,0,0,0-.06.35v8a6,6,0,0,0,3,.89C5.88,18.46,5.88,17.29,8.19,17.29Z"></path><path class="cls-4" d="M3.56,26.28a6,6,0,0,1-3-.89v4.1a.09.09,0,0,0,.09.1H11.16V26a6,6,0,0,0-3-.89C5.88,25.11,5.88,26.28,3.56,26.28Z"></path><path class="cls-5" d="M8.19,17.29c-2.31,0-2.31,1.17-4.63,1.17a6,6,0,0,1-3-.89v7.82a6,6,0,0,0,3,.89c2.32,0,2.32-1.17,4.63-1.17a6,6,0,0,1,3,.89V18.18A6,6,0,0,0,8.19,17.29Z"></path><path class="cls-6" d="M18.54,14.91a.73.73,0,0,0-.73-.72H13.36a.72.72,0,0,0-.73.72v1h5.91Z"></path><path class="cls-7" d="M12.63,15.94v6.5a.72.72,0,0,0,.73.73h4.45a.73.73,0,0,0,.73-.73v-6.5Z"></path><path class="cls-7" d="M8.49,6.68C9.72,6.14,10.42,5,10.05,4.15S8.37,3,7.14,3.56,5.21,5.23,5.59,6.09,7.26,7.21,8.49,6.68Z"></path><path class="cls-7" d="M8,14.48H3.74a.61.61,0,0,1-.61-.61V12.68a.61.61,0,0,1,.61-.61H8a.61.61,0,0,1,.61.61v1.19A.61.61,0,0,1,8,14.48Z"></path><path d="M17.81,13.75H13.36a1.16,1.16,0,0,0-1.17,1.16v7.53a1.17,1.17,0,0,0,1.17,1.17h4.45A1.17,1.17,0,0,0,19,22.44V14.91A1.17,1.17,0,0,0,17.81,13.75Zm-4.74,1.16a.29.29,0,0,1,.29-.29h4.45a.29.29,0,0,1,.29.29v.59h-5Zm5,7.53a.29.29,0,0,1-.29.29H13.36a.29.29,0,0,1-.29-.29V16.38h5Z"></path><path d="M14.16,18.19h1.11a.44.44,0,0,0,.43-.44.43.43,0,0,0-.43-.44H14.16a.43.43,0,0,0-.43.44A.44.44,0,0,0,14.16,18.19Z"></path><path d="M16.73,18.19H17a.44.44,0,0,0,.44-.44.44.44,0,0,0-.44-.44h-.27a.44.44,0,0,0-.44.44A.44.44,0,0,0,16.73,18.19Z"></path><path d="M14.16,20h1.11a.44.44,0,0,0,.43-.44.43.43,0,0,0-.43-.44H14.16a.43.43,0,0,0-.43.44A.44.44,0,0,0,14.16,20Z"></path><path d="M16.73,20H17a.44.44,0,0,0,.44-.44.44.44,0,0,0-.44-.44h-.27a.44.44,0,0,0-.44.44A.44.44,0,0,0,16.73,20Z"></path><path d="M14.16,21.8h1.11a.44.44,0,0,0,0-.87H14.16a.44.44,0,0,0,0,.87Z"></path><path d="M16.73,21.8H17a.44.44,0,1,0,0-.87h-.27a.44.44,0,1,0,0,.87Z"></path><path d="M5.55,24.05a.45.45,0,0,0,.23-.58.44.44,0,0,0-.58-.22,3.92,3.92,0,0,1-1.64.3.44.44,0,0,0-.44.44.43.43,0,0,0,.44.44A4.7,4.7,0,0,0,5.55,24.05Z"></path><path d="M8,11.63H3.74a1,1,0,0,0-1.05,1v1.19a1,1,0,0,0,1.05,1H8a1,1,0,0,0,1.05-1V12.68A1,1,0,0,0,8,11.63Zm.17,2.24A.17.17,0,0,1,8,14H3.74a.17.17,0,0,1-.17-.17V12.68a.17.17,0,0,1,.17-.17H8a.17.17,0,0,1,.17.17Z"></path><path d="M20.15,8.72,16,3.15V1.37A1.34,1.34,0,0,0,14.68,0H5.91A1.34,1.34,0,0,0,4.57,1.37V3.15l-.38.51a.44.44,0,0,0,.71.52l.33-.45H6A2.89,2.89,0,0,0,5.14,5a1.72,1.72,0,0,0,.21,1.58,2.25,2.25,0,0,0,1.86.82,3.52,3.52,0,0,0,3.27-2.13,1.71,1.71,0,0,0-.18-1.53h4.41c-4.81,6.48-3.56,4.8-3.77,5.09H1.46l2.19-3a.43.43,0,0,0-.09-.61A.42.42,0,0,0,3,5.34L.44,8.72a1.5,1.5,0,0,0-.29.88V22.53A.44.44,0,0,0,.59,23,.44.44,0,0,0,1,22.53V21H1a4.87,4.87,0,0,0,2.52.64A4.83,4.83,0,0,0,6.07,21a4.14,4.14,0,0,1,2.12-.53A.44.44,0,0,0,8.63,20a.43.43,0,0,0-.44-.44,4.84,4.84,0,0,0-2.51.63,4,4,0,0,1-2.12.54A4.84,4.84,0,0,1,1,20V18.26H1a4.88,4.88,0,0,0,2.52.63,4.84,4.84,0,0,0,2.51-.63,4,4,0,0,1,2.12-.54,4.84,4.84,0,0,1,2.53.74V23h0a4.87,4.87,0,0,0-2.52-.64,5,5,0,0,0-1.55.22.43.43,0,0,0-.28.55.44.44,0,0,0,.55.29,4.17,4.17,0,0,1,1.28-.18,4.84,4.84,0,0,1,2.53.74v1.31h0a4.88,4.88,0,0,0-2.52-.63,4.84,4.84,0,0,0-2.51.63,4,4,0,0,1-2.12.54A4.84,4.84,0,0,1,1,25.1v-.52a.44.44,0,0,0-.44-.44.44.44,0,0,0-.44.44v4.91A.54.54,0,0,0,.68,30H19.91a.54.54,0,0,0,.53-.54V9.6A1.45,1.45,0,0,0,20.15,8.72ZM15.58,4l2.08,2.8L15,4.76ZM9.64,5A2.68,2.68,0,0,1,7.21,6.51a1.4,1.4,0,0,1-1.15-.45A.89.89,0,0,1,6,5.26,2.66,2.66,0,0,1,8.41,3.73a1.37,1.37,0,0,1,1.14.46A.85.85,0,0,1,9.64,5Zm4.27-2.14V2.26a.44.44,0,0,0-.44-.44.44.44,0,0,0-.44.44v.59H11.79V2.26a.44.44,0,0,0-.88,0v.59H9.68V2.26a.44.44,0,0,0-.44-.44.44.44,0,0,0-.44.44v.59H7.56V2.26a.44.44,0,0,0-.44-.44.44.44,0,0,0-.44.44v.59H5.45V1.37A.45.45,0,0,1,5.91.91h8.77a.45.45,0,0,1,.46.46V2.85Zm-3.2,14.63a5,5,0,0,0-2.52-.63,4.94,4.94,0,0,0-2.51.63A4,4,0,0,1,3.56,18,4.75,4.75,0,0,1,1,17.28V9.69h9.69v7.8ZM1,26.08H1a5,5,0,0,0,2.52.63,4.94,4.94,0,0,0,2.51-.63,4,4,0,0,1,2.12-.54,4.75,4.75,0,0,1,2.53.74v2.86H1ZM11.6,29.15V9.69h4.52a.44.44,0,1,0,0-.87H12l2.48-3.36,4.22,3.36h-.57a.44.44,0,1,0,0,.87h1.39V29.15Z"></path><path class="cls-8" d="M29.49,14.31H18.1l.83-2.47h9.72Z"></path><path class="cls-9" d="M28.65,11.84H27.44l.83,2.47h1.22Z"></path><path class="cls-10" d="M29.49,14.31H18.1V29.24a.48.48,0,0,0,.48.48H29a.48.48,0,0,0,.49-.48Z"></path><path class="cls-10" d="M28.65,11.84H18.93V10.22a.59.59,0,0,1,.59-.59h8.55a.58.58,0,0,1,.58.59Z"></path><path class="cls-11" d="M28.27,14.31V29.24a.48.48,0,0,1-.48.48H29a.48.48,0,0,0,.49-.48V14.31Z"></path><path class="cls-11" d="M28.07,9.63H26.85a.59.59,0,0,1,.59.59v1.62h1.21V10.22A.58.58,0,0,0,28.07,9.63Z"></path><path class="cls-8" d="M18.1,21.81v3.3l11.39-2.83V19Z"></path><path class="cls-12" d="M23.27,18.56a3,3,0,0,1,.52,0A3.5,3.5,0,1,1,20.28,22,3.54,3.54,0,0,1,21,19.93"></path><path class="cls-9" d="M28.27,19.29v3.29l1.22-.3V19Z"></path><path class="cls-8" d="M23.79,18.52a3,3,0,0,0-.52,0l0,0a3.49,3.49,0,0,1,0,6.88,3.94,3.94,0,0,0,.6.05,3.5,3.5,0,1,0,0-7Z"></path><path class="cls-12" d="M21,19.93a3.53,3.53,0,0,1,2.3-1.37Z"></path><path class="cls-13" d="M22.68,17.66a2.74,2.74,0,0,1,.56,2.09.38.38,0,0,1-.35.34,2.8,2.8,0,0,1-2.1-.55,5,5,0,0,1-.94-2.3.44.44,0,0,1,.52-.51A5,5,0,0,1,22.68,17.66Z"></path><path d="M25.32,22a.31.31,0,0,0,.3-.31.31.31,0,0,0-.61,0A.31.31,0,0,0,25.32,22Z"></path><path d="M25.62,23.77a.31.31,0,1,0,0-.61.31.31,0,0,0,0,.61Z"></path><path d="M23.79,23.77a.31.31,0,1,0,0-.61.31.31,0,0,0,0,.61Z"></path><path d="M29.49,25.58a.29.29,0,0,0,.3-.3v-11h0a.28.28,0,0,0,0-.09L29,11.79V10.22a.89.89,0,0,0-.89-.89H19.52a.89.89,0,0,0-.89.89v1.57l-.82,2.42a.28.28,0,0,0,0,.09h0v4.51a.31.31,0,0,0,.31.31.3.3,0,0,0,.3-.31V14.61H29.18v4.14l-2.62.65a3.82,3.82,0,0,0-2.77-1.18,2.88,2.88,0,0,0-.41,0,2.08,2.08,0,0,0-.48-.79,5,5,0,0,0-2.47-1,.74.74,0,0,0-.67.2.76.76,0,0,0-.21.67,5,5,0,0,0,1,2.45l.09.08A3.82,3.82,0,0,0,20.11,21l-1.71.42V20a.3.3,0,0,0-.3-.31.31.31,0,0,0-.31.31v9.2a.79.79,0,0,0,.79.79H29a.78.78,0,0,0,.78-.79V26.49a.3.3,0,1,0-.6,0v2.75a.19.19,0,0,1-.18.18H18.58a.19.19,0,0,1-.18-.18v-3.9l2.68-.66a3.79,3.79,0,0,0,2.71,1.13,3.83,3.83,0,0,0,3.65-2.66l1.75-.48v2.61A.29.29,0,0,0,29.49,25.58ZM19.24,10.22a.29.29,0,0,1,.28-.29h8.55a.29.29,0,0,1,.28.29v1.31H19.24ZM18.52,14l.63-1.86h9.29L29.07,14Zm1.63,3.18a.13.13,0,0,1,0-.12.19.19,0,0,1,.1,0h0a4.47,4.47,0,0,1,2.16.86,2.16,2.16,0,0,1,.47,1.49L21.77,18.2a.3.3,0,0,0-.43.43l1.17,1.17a2.19,2.19,0,0,1-1.5-.48A4.34,4.34,0,0,1,20.15,17.18ZM18.4,24.72V22.05L20,21.66c0,.11,0,.23,0,.36a3.7,3.7,0,0,0,.67,2.14Zm5.39.49A3.19,3.19,0,0,1,20.59,22a3.14,3.14,0,0,1,.59-1.86,3.58,3.58,0,0,0,1.36.25l.37,0a.68.68,0,0,0,.63-.62,4.33,4.33,0,0,0,0-.94h.27a3.2,3.2,0,1,1,0,6.39Zm3.79-2.73a3.55,3.55,0,0,0,0-.46,3.76,3.76,0,0,0-.63-2.1l2.2-.55V22Z"></path><path d="M27.93,26.57H26.68a.31.31,0,0,0,0,.61h1.25a.31.31,0,1,0,0-.61Z"></path><path d="M27.93,27.73H26.68a.31.31,0,0,0,0,.61h1.25a.31.31,0,1,0,0-.61Z"></path><path d="M27.31,12.77H26.06a.3.3,0,0,0,0,.6h1.25a.3.3,0,1,0,0-.6Z"></path></svg>