<svg xmlns="http://www.w3.org/2000/svg" id="Layer_1" data-name="Layer 1" viewBox="0 0 37 24"><defs><style>.cls-1{fill:#ffc277;}.cls-2{fill:#f69500;}.cls-3{fill:#e3edf6;}.cls-4{fill:#c5d9ec;}.cls-5{fill:#fff;}</style></defs><path class="cls-1" d="M13.83,18.84l-2.27,2.44A7.67,7.67,0,0,0,14.33,23a7.47,7.47,0,0,0,3.12.44l1.58-3a14.44,14.44,0,0,1-2.82-.58A14.88,14.88,0,0,1,13.83,18.84Z"></path><path class="cls-2" d="M15.12,21.6A7.76,7.76,0,0,1,13.83,21l1.4-1.51c-.52-.21-1-.43-1.4-.64l-2.27,2.44A7.67,7.67,0,0,0,14.33,23a7.47,7.47,0,0,0,3.12.44L18.18,22A7.68,7.68,0,0,1,15.12,21.6Z"></path><path class="cls-1" d="M14.19,2.12a7.1,7.1,0,0,0-2.54.95,7.38,7.38,0,0,0-2,1.76l1.61,2.58A14.63,14.63,0,0,1,13.6,6a14.83,14.83,0,0,1,2.34-.9Z"></path><path class="cls-2" d="M15.67,5.15l-.78-1.31a7.2,7.2,0,0,0-2.55,1,5,5,0,0,0-.63.43l-.79-1.28a7.28,7.28,0,0,1,.75-.82h0a7.22,7.22,0,0,0-2,1.77l1.61,2.57S13.1,6.22,13.6,6A15,15,0,0,1,15.67,5.15Z"></path><path class="cls-1" d="M24.83,1.09A10.9,10.9,0,0,0,21.41.53,10.69,10.69,0,0,0,18,1.09V4.6a18.17,18.17,0,0,1,3.71-.31A18.41,18.41,0,0,1,26.41,5C25.88,3.7,25.36,2.39,24.83,1.09Z"></path><path class="cls-2" d="M25.67,3.17a18.27,18.27,0,0,0-4-.52,17.27,17.27,0,0,0-2.21.09V.94A11.27,11.27,0,0,1,21.1.54,10.37,10.37,0,0,0,18,1.09V4.6A18.81,18.81,0,0,1,26.41,5C26.17,4.4,25.92,3.78,25.67,3.17Z"></path><path class="cls-3" d="M9,14.79,5.84,17.35V7.41L9,9.84Z"></path><path class="cls-1" d="M2.68,4.83a18.22,18.22,0,0,0,0,15l3.16-2.52.61-5L5.84,7.41Z"></path><path class="cls-2" d="M3.28,17.35A18.09,18.09,0,0,1,3.82,5.76L2.68,4.83a18.58,18.58,0,0,0,0,15l3.16-2.52v-2Z"></path><path class="cls-1" d="M21.69,4.29A24.48,24.48,0,0,0,19,4.44V20.26a22.19,22.19,0,0,0,2.66.15A15.68,15.68,0,0,0,25.34,20a29.06,29.06,0,0,1-1-8,29.42,29.42,0,0,1,1-7.25A20.76,20.76,0,0,0,21.69,4.29Z"></path><path class="cls-2" d="M20.53,18.8V4.32q-.78,0-1.5.12V20.26a22.19,22.19,0,0,0,2.66.15A15.68,15.68,0,0,0,25.34,20c-.11-.41-.22-.85-.33-1.33A14.53,14.53,0,0,1,20.53,18.8Z"></path><path class="cls-2" d="M23.12,13a2.64,2.64,0,0,1-2.61-2.66V10.2H19v.54a3.72,3.72,0,0,0,3.69,3.76h1.62V13Z"></path><path class="cls-3" d="M19,4.44a20.15,20.15,0,0,0-4,.91,18.26,18.26,0,0,0-1.32,6.87,18,18,0,0,0,1.33,7.14c.54.19,1.28.37,1.93.53a15.56,15.56,0,0,0,2,.37Z"></path><path class="cls-4" d="M17,18.29l-.83-.21a18.8,18.8,0,0,1-.85-5.86,17.87,17.87,0,0,1,1.32-6.87A19.06,19.06,0,0,1,19,4.7V4.44a20.15,20.15,0,0,0-4,.91,17.86,17.86,0,0,0-1.3,6.22,18.65,18.65,0,0,0,1.31,7.79,22.61,22.61,0,0,0,3.94.9v-1.6A15.56,15.56,0,0,1,17,18.29Z"></path><path class="cls-1" d="M13.77,12.35a17.24,17.24,0,0,1,1.31-7A13.52,13.52,0,0,0,9,9.57v5.51a12.45,12.45,0,0,0,6.08,4.28A17.43,17.43,0,0,1,13.77,12.35Z"></path><path class="cls-2" d="M10.45,14V8.49A9.77,9.77,0,0,1,12,6.89,11.14,11.14,0,0,0,9,9.57v5.51a12.45,12.45,0,0,0,6.08,4.28,14.26,14.26,0,0,1-.71-2A11,11,0,0,1,10.45,14Z"></path><path class="cls-4" d="M7.37,14.26V8.6L5.84,7.41v9.94l3.05-2.43V13.05Z"></path><path class="cls-1" d="M28.46,5.8a22.09,22.09,0,0,0,0,13.11c4.29-1.57,7.49-6.56,7.49-6.56A18.54,18.54,0,0,0,28.46,5.8Z"></path><path class="cls-2" d="M29.12,18.63c3.61-1.54,6.82-6.28,6.82-6.28a10.4,10.4,0,0,0-.66-1,18.45,18.45,0,0,1-5.85,5.2A22.66,22.66,0,0,1,29,12.35a22.8,22.8,0,0,1,.79-5.84c-.43-.25-.88-.49-1.35-.71a22.12,22.12,0,0,0-1,5.62,22.84,22.84,0,0,0,1,7.49C28.68,18.83,28.9,18.73,29.12,18.63Z"></path><path class="cls-3" d="M25.37,4.72a29.41,29.41,0,0,0-1,7,29.08,29.08,0,0,0,1,8.26,15.53,15.53,0,0,0,3.11-1.08,22.09,22.09,0,0,1,0-13.11A21.48,21.48,0,0,0,25.37,4.72Z"></path><path class="cls-4" d="M28.45,18.91c-.14-.45-.28-1-.42-1.55a15.21,15.21,0,0,1-1.6.63,29.47,29.47,0,0,1-.53-6.26,29.91,29.91,0,0,1,.91-6.55c-.37-.13-.84-.28-1.44-.46a29.41,29.41,0,0,0-1,7,30.16,30.16,0,0,0,.34,5.17A26.5,26.5,0,0,0,25.34,20,21.8,21.8,0,0,0,28.45,18.91Z"></path><path class="cls-5" d="M3,8.59H4.09V9.67H3Z"></path><path class="cls-5" d="M3,10.74H4.09v1.08H3Z"></path><path d="M32.64,7.9a17.75,17.75,0,0,0-5.89-3.33L25.17.65a11.49,11.49,0,0,0-7.76,0V4.15c-.44.08-.86.18-1.28.3L14.41,1.54A7.89,7.89,0,0,0,9,4.8l1.55,2.48A12.66,12.66,0,0,0,8.76,9L2.44,4a19,19,0,0,0,0,16.72l6.32-5.05A13.41,13.41,0,0,0,12.91,19l-2.14,2.29a8.4,8.4,0,0,0,7,2.68l1.63-3.13c.74.07,1.5.11,2.28.11a16.92,16.92,0,0,0,11-4.16,17.13,17.13,0,0,0,3.86-4.44A20.27,20.27,0,0,0,32.64,7.9Zm-7.83,4.45a26.57,26.57,0,0,1,.88-7,13.74,13.74,0,0,1,2.07.73,22.79,22.79,0,0,0,0,12.51,16.58,16.58,0,0,1-2.06.72A29.8,29.8,0,0,1,24.81,12.35Zm-1,0c0,.55,0,1.09,0,1.61H22.67a3.2,3.2,0,0,1-3.17-3.22h4.29C23.77,11.25,23.75,11.79,23.76,12.35Zm-5.31,7.29A16.35,16.35,0,0,1,15.58,19c-.83-1.2-1.32-3.6-1.34-6.62S14.7,7,15.57,5.73a17.39,17.39,0,0,1,2.88-.68Zm5.42-10H19.5V4.93a17.85,17.85,0,0,1,5.16.19A28.24,28.24,0,0,0,23.87,9.66ZM18.46,1.48a10.37,10.37,0,0,1,5.92,0l1.08,2.69a18.9,18.9,0,0,0-7-.24Zm-8.2,3.39a6.8,6.8,0,0,1,3.62-2.15l1.21,2a15.19,15.19,0,0,0-3.73,1.88Zm-8.72,7.5A17.83,17.83,0,0,1,2.85,5.68L5.27,7.62v3.13H6.33V8.46l2.11,1.68v4.42L6.33,16.24V14H5.27v3.11L2.85,19A17.63,17.63,0,0,1,1.54,12.37Zm8,2.5v-5a12.94,12.94,0,0,1,4.58-3.52,16.78,16.78,0,0,0-.88,6,18.11,18.11,0,0,0,.91,6A12.54,12.54,0,0,1,9.49,14.87Zm7.58,8.05a7.18,7.18,0,0,1-4.8-1.69l1.64-1.76a17.18,17.18,0,0,0,4.32,1.22Zm2.43-3.15v-6.2A4.18,4.18,0,0,0,22.67,15h1.22a31.7,31.7,0,0,0,.77,4.54A18.16,18.16,0,0,1,19.5,19.77ZM32,16a17.45,17.45,0,0,1-3.25,2.18,21.52,21.52,0,0,1,0-11.59,16.73,16.73,0,0,1,3.21,2.16,18.11,18.11,0,0,1,3.31,3.63A17.69,17.69,0,0,1,32,16Z"></path><path d="M32.15,11.81h1.06v1.08H32.15Z"></path><path d="M5.27,11.81H6.33v1.06H5.27Z"></path></svg>