<svg xmlns="http://www.w3.org/2000/svg" id="Layer_1" data-name="Layer 1" viewBox="0 0 32 32"><defs><style>.cls-1{fill:#2e9163;}.cls-2{fill:#35a872;}.cls-3{fill:#3dc285;}.cls-4{fill:#ffb632;}.cls-5{fill:#ffd33a;}.cls-6{fill:#e6be34;}.cls-7{fill:#ff8e26;}.cls-8{fill:#ad6643;}</style></defs><path class="cls-1" d="M16.53.53l.17.33a8.61,8.61,0,0,1,.9,3.82V11.2h3.2V4.8A4.27,4.27,0,0,0,16.53.53Z"></path><path class="cls-1" d="M25.07.53,24.9.86A8.61,8.61,0,0,0,24,4.68V11.2H20.8V4.8A4.27,4.27,0,0,1,25.07.53Z"></path><path class="cls-2" d="M14.4,3.73l.13.11a8.47,8.47,0,0,1,2.26,2.94,8.4,8.4,0,0,1,.81,3.62v1.87h3.2V10.13a6.4,6.4,0,0,0-6.4-6.4Z"></path><path class="cls-2" d="M27.2,3.73l-.13.11A8.59,8.59,0,0,0,24,10.4v1.87H20.8V10.13a6.4,6.4,0,0,1,6.4-6.4Z"></path><path class="cls-3" d="M12.27,6.93l1.66,1.39a4.32,4.32,0,0,1,1.54,3.28v.67h3.2V11.2A4.27,4.27,0,0,0,14.4,6.93Z"></path><path class="cls-3" d="M29.33,6.93,27.67,8.32a4.32,4.32,0,0,0-1.54,3.28v.67h-3.2V11.2A4.27,4.27,0,0,1,27.2,6.93Z"></path><path class="cls-4" d="M29.33,16.53v6.4a6.39,6.39,0,0,1-5.86,6.38,4.87,4.87,0,0,1-.54,0H18.67a6.41,6.41,0,0,1-2.45-.48,6.66,6.66,0,0,1-2.08-1.39,6.49,6.49,0,0,1-1.39-2.08,6.41,6.41,0,0,1-.48-2.45v-6.4a6.4,6.4,0,0,1,6.4-6.4h4.26a6.41,6.41,0,0,1,2.45.49A6.33,6.33,0,0,1,27.46,12a6.61,6.61,0,0,1,1.39,2.07A6.44,6.44,0,0,1,29.33,16.53Z"></path><path class="cls-5" d="M4.8,12.27V8H6.93v4.27A1.06,1.06,0,0,1,8,13.33V17.6A6.38,6.38,0,0,0,14.4,24h5.87a1.06,1.06,0,0,1,1.06,1.07,6.4,6.4,0,0,1-6.4,6.4H11.2A10.69,10.69,0,0,1,.53,20.8V16.53A4.27,4.27,0,0,1,4.8,12.27Z"></path><path class="cls-6" d="M6.93,8H4.8v2.13H6.93Z"></path><path class="cls-7" d="M24,31.47a6.4,6.4,0,1,0-6.4-6.4A6.41,6.41,0,0,0,24,31.47Z"></path><path class="cls-8" d="M24,16.53a1.09,1.09,0,0,0-1.07,1.07v3.2h2.14V17.6A1.09,1.09,0,0,0,24,16.53Z"></path><path class="cls-3" d="M29.33,16.53h2.14A4.27,4.27,0,0,1,27.2,20.8H25.07a4.27,4.27,0,0,1,4.26-4.27Z"></path><path d="M29.44,20.77A4.72,4.72,0,0,0,31.31,19,4.8,4.8,0,0,0,32,16.53a.55.55,0,0,0-.53-.53H29.85a6.94,6.94,0,0,0-3.09-5.25,3.8,3.8,0,0,1,1.25-2l1.66-1.39a.5.5,0,0,0,.16-.59.47.47,0,0,0-.19-.25.5.5,0,0,0-.31-.1H27.2a4.9,4.9,0,0,0-1.78.34,8.14,8.14,0,0,1,2-2.49l.13-.11a.44.44,0,0,0,.17-.27.5.5,0,0,0,0-.32.53.53,0,0,0-.19-.25.5.5,0,0,0-.31-.1,6.89,6.89,0,0,0-2.61.51,8.22,8.22,0,0,1,.79-2.61l.16-.33A.58.58,0,0,0,25.6.51a.5.5,0,0,0-.08-.26.55.55,0,0,0-.19-.18A.48.48,0,0,0,25.07,0,4.78,4.78,0,0,0,20.8,2.61,4.78,4.78,0,0,0,16.53,0a.48.48,0,0,0-.26.07.55.55,0,0,0-.19.18A.5.5,0,0,0,16,.51a.58.58,0,0,0,.06.26l.16.33A8.22,8.22,0,0,1,17,3.71,6.89,6.89,0,0,0,14.4,3.2a.5.5,0,0,0-.31.1.53.53,0,0,0-.19.25.5.5,0,0,0,0,.32.44.44,0,0,0,.17.27l.13.11a8.14,8.14,0,0,1,2,2.49A4.9,4.9,0,0,0,14.4,6.4H12.27a.5.5,0,0,0-.31.1.47.47,0,0,0-.19.25.5.5,0,0,0,.16.59l1.66,1.39a3.73,3.73,0,0,1,1.25,2,7,7,0,0,0-3.11,5.77v6.29a5.89,5.89,0,0,1-3.2-5.22V13.33a1.61,1.61,0,0,0-1.06-1.51V8a.55.55,0,0,0-.16-.38.54.54,0,0,0-.38-.15H4.8A.51.51,0,0,0,4.27,8v3.76A4.79,4.79,0,0,0,0,16.53V20.8A11.21,11.21,0,0,0,11.2,32h3.73a6.94,6.94,0,0,0,4.54-1.69,6.93,6.93,0,0,0,10.31-9.08C29.67,21.08,29.56,20.92,29.44,20.77Zm-2.24-.5H25.64a3.73,3.73,0,0,1,3.69-3.2H30.9a3.77,3.77,0,0,1-3.7,3.2ZM28.78,16a4.82,4.82,0,0,0-3.18,1.76V17.6a1.58,1.58,0,0,0-.17-.71,1.62,1.62,0,0,0-.47-.57l2.93-2.92A5.77,5.77,0,0,1,28.78,16ZM22.4,17.6v.72a6.66,6.66,0,0,0-1.38.49,2.1,2.1,0,0,0-.26.13L17.82,16l3-3,3,3,0,0A1.61,1.61,0,0,0,22.4,17.6Zm-5,5.42-3.28-3.29,3-3,2.77,2.77A7,7,0,0,0,17.37,23Zm6.1-5.42a.53.53,0,1,1,1.06,0v2.67H23.47Zm3.76-5.06-2.7,2.71-3-3,1.6-1.6a5.93,5.93,0,0,1,2.23.53A5.85,5.85,0,0,1,27.23,12.54Zm-5.58-1.87-.85.84L20,10.67Zm6.21-3.2-.53.44a4.76,4.76,0,0,0-1.53,2.31,6.94,6.94,0,0,0-2-.57,3.8,3.8,0,0,1,1.38-1.59,3.69,3.69,0,0,1,2-.59Zm-4,.28A4.83,4.83,0,0,0,22.67,9.6H21.36A5.86,5.86,0,0,1,22.26,7a5.85,5.85,0,0,1,3.41-2.5A9.1,9.1,0,0,0,23.86,7.75Zm.31-6.58a9.06,9.06,0,0,0-.69,3.12,6.93,6.93,0,0,0-2.15,2.16V4.8a3.72,3.72,0,0,1,.8-2.3A3.76,3.76,0,0,1,24.17,1.17ZM20.27,4.8V6.45a6.93,6.93,0,0,0-2.15-2.16,9.06,9.06,0,0,0-.69-3.12,3.76,3.76,0,0,1,2,1.33A3.72,3.72,0,0,1,20.27,4.8Zm-4.34-.33A5.74,5.74,0,0,1,17.31,5h0A5.86,5.86,0,0,1,20.24,9.6H18.93a4.83,4.83,0,0,0-1.19-1.85A9.1,9.1,0,0,0,15.93,4.47ZM14.27,7.91l-.53-.44h.66a3.69,3.69,0,0,1,2,.59A3.8,3.8,0,0,1,17.8,9.65a6.94,6.94,0,0,0-2,.57A4.76,4.76,0,0,0,14.27,7.91Zm4.18,2.76,1.6,1.6-3,3-2.7-2.7a5.73,5.73,0,0,1,1.85-1.35A5.93,5.93,0,0,1,18.45,10.67ZM13.71,13.4l2.6,2.6-3,3-.53-.53V16.53A5.77,5.77,0,0,1,13.71,13.4Zm-.91,9.53V21l.53-.53,3,3H14.4a6.1,6.1,0,0,1-1.59-.22C12.8,23.14,12.8,23,12.8,22.93Zm1.6,1.6h2.69a4.87,4.87,0,0,0,0,.54,4.7,4.7,0,0,0,0,.53H14.4a8,8,0,0,1-8-8v-.94A4.87,4.87,0,0,1,7.47,13.6v4a6.93,6.93,0,0,0,6.93,6.93Zm-8-16V9.6H5.33V8.53Zm4.8,22.4A10.14,10.14,0,0,1,1.07,20.8V16.53A3.72,3.72,0,0,1,4.8,12.8a.55.55,0,0,0,.38-.16.51.51,0,0,0,.15-.37v-1.6H6.4v1.6a.57.57,0,0,0,.1.31.52.52,0,0,0,.27.19,6,6,0,0,0-1.44,3.89v.94a9.08,9.08,0,0,0,9.07,9.07h2.85a7,7,0,0,0,1.47,2.88,5.78,5.78,0,0,1-3.79,1.38Zm12.8,0a5.86,5.86,0,0,1-2.52-11.16,5.64,5.64,0,0,1,.92-.35V20.8a.55.55,0,0,0,.16.38.51.51,0,0,0,.37.15H27.2a4.93,4.93,0,0,0,1.2-.15,5.89,5.89,0,0,1,1,6.3A5.87,5.87,0,0,1,27.18,30,5.77,5.77,0,0,1,24,30.93Z"></path><path d="M19.73,26.67a.54.54,0,1,0-.53-.54A.54.54,0,0,0,19.73,26.67Z"></path><path d="M21.87,26.67a.54.54,0,1,0-.54-.54A.54.54,0,0,0,21.87,26.67Z"></path><path d="M21.87,28.8a.54.54,0,1,0-.54-.53A.53.53,0,0,0,21.87,28.8Z"></path></svg>