<svg xmlns="http://www.w3.org/2000/svg" id="Layer_1" data-name="Layer 1" viewBox="0 0 36 26"><defs><style>.cls-1{fill:#edb4a2;}.cls-2{fill:#f3cdc1;}.cls-3{fill:#ae2b00;}.cls-4{fill:#e48d72;}.cls-5{fill:#8e1600;}.cls-6{fill:#d65128;}</style></defs><path class="cls-1" d="M35.64,10.56C35.64,4.73,29.18,0,21.21,0a18.45,18.45,0,0,0-7.36,1.48c-2.41,1-4.94,1.76-7.42,2.59C2.82,5.29.36,7.73.36,10.56v4.88c0,2.83,2.46,5.27,6.07,6.49,2.48.83,5,1.54,7.42,2.59A18.45,18.45,0,0,0,21.21,26c8,0,14.43-4.73,14.43-10.56Z"></path><path class="cls-2" d="M21.21,0a18.56,18.56,0,0,0-6.72,1.22A75.68,75.68,0,0,1,7.23,3.83c-4,1.1-6.87,3.7-6.87,6.73s2.83,5.63,6.87,6.74a75.68,75.68,0,0,1,7.26,2.61,18.77,18.77,0,0,0,6.72,1.21c8,0,14.43-4.72,14.43-10.56S29.18,0,21.21,0Z"></path><path class="cls-3" d="M33.94,11.69a1.64,1.64,0,0,0-1.3-1.91,1.36,1.36,0,0,0-.29,0H27.62c-3.2,0-3.07,1.23-3.07,1.63a1.53,1.53,0,0,0,.43,1,5.87,5.87,0,0,1,1.7,4.09,1.51,1.51,0,0,0,2.2,1.19C31.6,16.29,33.49,14.15,33.94,11.69Z"></path><path class="cls-4" d="M34.76,10.34h-.08a.8.8,0,0,0-.72.88v.09h0v0h0v.06h0v0h0v0h0v0a7.27,7.27,0,0,1-1.67,3.23h0l0,0h-.11v0h0l0,0h0l-.13.14,0,0,0,0a10.84,10.84,0,0,1-2.35,1.81l0,0h0l0,0h0l0,0-.05,0h0l0,0h-.36a1.51,1.51,0,0,1-2.2-1.19h0v0h0v0h0v0h0v0h0v0h-.09v0h0v0h0v0h0v0h0v0h0v0h0v0h0v-.07h0v0h0v0h0v0h0v0h0v0H26.3v0a5.1,5.1,0,0,0-.42-.92.79.79,0,0,0-1.1-.29.82.82,0,0,0-.28,1.12h0a5.46,5.46,0,0,1,.59,2.29,3.12,3.12,0,0,0,3.1,2.83,3,3,0,0,0,1.43-.36A13.35,13.35,0,0,0,33,16.72l0,0s0,0,0,0A9.08,9.08,0,0,0,35.51,12a3.09,3.09,0,0,0,0-.91A.8.8,0,0,0,34.76,10.34Z"></path><path class="cls-3" d="M21.21,4.74A17.42,17.42,0,0,0,24.68,7a15,15,0,0,0,6.37,1.08,1.38,1.38,0,0,0,1-2.35,14.2,14.2,0,0,0-9.21-4.08C19.6,1.63,19.6,3.25,21.21,4.74Z"></path><path class="cls-4" d="M23.13,6.3a.8.8,0,0,0-.8.81.82.82,0,0,0,.39.7c.41.24.83.48,1.26.69a15.37,15.37,0,0,0,6.44,1.26h.68l.37,0,.18,0A2.94,2.94,0,0,0,34,7.29.8.8,0,1,0,32.38,7h0v0A1.29,1.29,0,0,1,32,7.7h-.11l0,0h0a1.34,1.34,0,0,1-.53.24h-.29s-.23,0-.63,0A13.94,13.94,0,0,1,24.68,7H24.3l-.48-.26h-.07l-.22-.13A.8.8,0,0,0,23.13,6.3Z"></path><path class="cls-3" d="M5.17,6.5H4.71A4.26,4.26,0,0,0,.37,10.85a.76.76,0,0,0,0,.15v4.09c-.21,3,2.31,5.57,6.06,6.84l.87.29a4.52,4.52,0,0,0,5.89-4.35C13.19,14.62,13.19,6.5,5.17,6.5Z"></path><path class="cls-3" d="M23,11.38A3.05,3.05,0,0,1,23.31,10a1.64,1.64,0,0,0-.61-2.18,19.3,19.3,0,0,1-3.1-2.3l-.41-.4a6.25,6.25,0,0,0-6.55-1.4,2.06,2.06,0,0,0-1.06,3.51c2.58,2.49,3.09,6.45,3.19,9.06a2.72,2.72,0,0,0,1.63,2.59,17.72,17.72,0,0,0,4.81.66h.67a3.26,3.26,0,0,0,3-4,3.78,3.78,0,0,0-1.06-2A3.09,3.09,0,0,1,23,11.38Z"></path><path class="cls-4" d="M25.08,13a.81.81,0,0,0-.8.81.76.76,0,0,0,.13.44h0a4.15,4.15,0,0,1,.29.6v0h0v0h0v0h0v0h.1v0H25v0h0a3.2,3.2,0,0,1-.64,2.34l-.16.2h-.11v0h-.14l-.16.15h-.43l-.22.11h0a3.3,3.3,0,0,1-1,.27H20.48a18.56,18.56,0,0,1-2.35-.26h-.27l-.19,0h-.09l-.2,0h-.1l-.15,0H17l-.2,0h-.45a2,2,0,0,1-.32-.18h0l0,0H15.6l0,0h0l0,0h0l0,0h0v0h0l0,0h0l0,0h0v0H15A.81.81,0,0,0,14,17.05a.82.82,0,0,0-.41,1.08A4.15,4.15,0,0,0,16,20.4c.43.12.86.23,1.3.32h.09a18.51,18.51,0,0,0,3.86.38h.73a4.87,4.87,0,0,0,4.53-5.94,5.45,5.45,0,0,0-.71-1.79A.82.82,0,0,0,25.08,13Z"></path><path class="cls-5" d="M33,11.29a.8.8,0,0,0-.77.58l0,.07V12a7.65,7.65,0,0,1-3.67,4.05.81.81,0,0,0-.3,1.1.8.8,0,0,0,1.09.32,9.18,9.18,0,0,0,4.4-5v0l0,0h0l0-.09h0a.8.8,0,0,0-.54-1A.62.62,0,0,0,33,11.29Z"></path><path class="cls-5" d="M32.29,6.19h0A.54.54,0,0,0,32.22,6h-.06l0,0H32a.46.46,0,0,1-.07-.07h0l0-.05,0,0,0,0a10.37,10.37,0,0,0-1.05-.94l0,0,0,0h0l0,0h0l0,0h-.06a.8.8,0,0,0-1.12.17.82.82,0,0,0,.16,1.14,8.28,8.28,0,0,1,.84.71h-.07a12.59,12.59,0,0,1-5-.93c-.34-.17-.69-.36-1-.57a.79.79,0,0,0-1.1.28.82.82,0,0,0,.27,1.11h0l.21.13h.07l.48.26h.38a13.94,13.94,0,0,0,5.74,1.1h1l.09,0h.05A1.43,1.43,0,0,0,32,7.71h.15a1.68,1.68,0,0,0,.15-.3h.06s0-.07,0-.1v0A1.28,1.28,0,0,0,32.29,6.19Z"></path><path class="cls-5" d="M22.66,8.66a.83.83,0,0,0-.77.54h0a4.6,4.6,0,0,0-.53,2.16,4.68,4.68,0,0,0,1.36,3.34,2.11,2.11,0,0,1,.64,1.17,1.64,1.64,0,0,1-1.53,2h-.61a15.79,15.79,0,0,1-4.32-.58,1.26,1.26,0,0,1-.52-1.1v-.31a.8.8,0,0,0-.8-.77h0a.81.81,0,0,0-.76.85,2.71,2.71,0,0,0,0,.29v.05h0v0h0v0h0v0h0v0h0v0h0l0,0a2.73,2.73,0,0,0,.66,1.23h.14l0,0h0a2.16,2.16,0,0,0,.65.43h.07a17.72,17.72,0,0,0,4.81.66h.9a3.3,3.3,0,0,0,1-.27h0l.22-.11h.43l.16-.15H24l0,0h.13a3.31,3.31,0,0,0,.8-2.54h0v0h-.05a3.78,3.78,0,0,0-1.06-2,3.09,3.09,0,0,1-.9-2.19A3.05,3.05,0,0,1,23.31,10s0,0,0,0v0a.36.36,0,0,0,0-.09h0a.14.14,0,0,0,0-.06l0-.08a.78.78,0,0,0-.5-.95A.76.76,0,0,0,22.66,8.66Z"></path><path class="cls-5" d="M3.11,14.27A2.42,2.42,0,0,0,.7,16.71,2.55,2.55,0,0,0,1,17.89,6.8,6.8,0,0,0,1.8,19v0l0,0h0v0l0,0h0l0,0,0,0H2v0H2.1l0,0h.07l0,0h.08v0h.09l0,0h.06v0h0l0,0h.06l0,0h0v0l0,0h0l0,0h0v0h0v0h0l0,0H3l0,0A11.35,11.35,0,0,0,6.1,21.81l.05,0h.91l2,.64h.09l.08,0a2.4,2.4,0,0,0,3-1.58,2.44,2.44,0,0,0-1.56-3.06h0l-.09,0,0,0h0L10,18,8,17.3a5.08,5.08,0,0,1-2.74-1.77A2.39,2.39,0,0,0,3.11,14.27Z"></path><path class="cls-4" d="M15.6,21.84A1.63,1.63,0,0,0,15.08,25h.48a18.16,18.16,0,0,0,2.29.55l.13,0h1.77l.52,0H22a1.63,1.63,0,0,0-.06-3.25h-.69l-.72,0h-.07a15,15,0,0,1-4.3-.81A1.82,1.82,0,0,0,15.6,21.84ZM32.55,18a1.55,1.55,0,0,0-1.27.63,7.58,7.58,0,0,1-.76.84l0,0,0,0A11.09,11.09,0,0,1,27,21.66a1.62,1.62,0,0,0-.89,2.11,1.6,1.6,0,0,0,2.08.91,14.35,14.35,0,0,0,4.47-2.83l0,0,0,0h0l0,0h0l0,0a10.25,10.25,0,0,0,.88-1l0,0h.1a1.64,1.64,0,0,0-.29-2.28A1.6,1.6,0,0,0,32.55,18Z"></path><path class="cls-6" d="M6.77,9.75c0-.9-1.07-1.63-2.4-1.63S2,8.85,2,9.75,3,11.38,4.37,11.38,6.77,10.65,6.77,9.75Z"></path><path class="cls-6" d="M9.65,10.09A.82.82,0,0,0,8.53,9.9.85.85,0,0,0,8.71,11a.82.82,0,0,0,1.12.18A.83.83,0,0,0,9.65,10.09Z"></path><path class="cls-6" d="M18,6.5c0-.9-1.08-1.63-2.41-1.63s-2.4.73-2.4,1.63,1.08,1.62,2.4,1.62S18,7.4,18,6.5Z"></path><path class="cls-6" d="M21.21,8.94a.81.81,0,1,1-1.61,0,.81.81,0,1,1,1.61,0Z"></path><path class="cls-6" d="M24.42,4.06a.81.81,0,1,1-.81-.81A.81.81,0,0,1,24.42,4.06Z"></path><path class="cls-6" d="M27.62,12.19a.8.8,0,1,1-.8-.81A.8.8,0,0,1,27.62,12.19Z"></path></svg>