<svg xmlns="http://www.w3.org/2000/svg" xmlns:xlink="http://www.w3.org/1999/xlink" id="Layer_1" data-name="Layer 1" viewBox="0 0 32 32"><defs><style>.cls-1{fill:#fff;}.cls-2{mask:url(#mask);}.cls-3{fill:#f45858;}.cls-4{fill:#e84949;}.cls-5{fill-rule:evenodd;}</style><mask id="mask" x="0" y="0" width="32" height="32" maskUnits="userSpaceOnUse"><g id="mask0_0_10" data-name="mask0 0 10"><path class="cls-1" d="M0,0H32V32H0Z"></path></g></mask></defs><g class="cls-2"><path class="cls-3" d="M26.06,16.39A12.8,12.8,0,1,1,13.27,3.59,12.79,12.79,0,0,1,26.06,16.39Z"></path><path class="cls-4" d="M2.19,16.39A12.8,12.8,0,0,1,14.12,3.62a12.79,12.79,0,1,0,0,25.53A12.79,12.79,0,0,1,2.19,16.39Z"></path><path class="cls-5" d="M0,16.39a13.26,13.26,0,0,0,26.52,0,.47.47,0,1,0-.93,0A12.33,12.33,0,1,1,13.26,4.06a.47.47,0,1,0,0-.93A13.26,13.26,0,0,0,0,16.39Z"></path><path class="cls-5" d="M21,26.93a.47.47,0,0,0-.46-.48,10.07,10.07,0,0,1,0-20.13.47.47,0,0,0,0-.94,11,11,0,0,0,0,22A.45.45,0,0,0,21,26.93Z"></path><path class="cls-5" d="M14.15,25.26a.44.44,0,0,0,.4.08,13.68,13.68,0,0,0,10-13.24A14.43,14.43,0,0,0,24.24,9a.48.48,0,0,0-.08-.16,13.4,13.4,0,0,0-3.38-3.38.5.5,0,0,0-.27-.08,11,11,0,0,0-6.36,19.88Zm.37-.89a10.07,10.07,0,0,1,5.85-18,12.36,12.36,0,0,1,3,3,12.92,12.92,0,0,1,.31,2.8A12.75,12.75,0,0,1,14.52,24.37Z"></path><path class="cls-5" d="M11.41,22.37a.49.49,0,0,0,.5.2A13.7,13.7,0,0,0,22.28,6.8a.49.49,0,0,0-.15-.27,13,13,0,0,0-1.35-1.07.5.5,0,0,0-.27-.08A11,11,0,0,0,11.41,22.37Zm.61-.79A10.09,10.09,0,0,1,20.37,6.32c.35.25.69.52,1,.8A12.77,12.77,0,0,1,12,21.58Z"></path><path class="cls-5" d="M10.21,19.42a.48.48,0,0,0,.37,0A13.7,13.7,0,0,0,20.39,6.29c0-.14,0-.29,0-.43a.45.45,0,0,0-.15-.33.46.46,0,0,0-.35-.12A11,11,0,0,0,10,19.13.44.44,0,0,0,10.21,19.42Zm9.24-13a10.07,10.07,0,0,0-8.66,12A12.76,12.76,0,0,0,19.45,6.39Z"></path><path class="cls-5" d="M3.57,18.89a.5.5,0,0,0,.16-.43,14.21,14.21,0,0,1-.16-2.07A13.56,13.56,0,0,1,11.09,4.24a.46.46,0,0,0,.23-.57.46.46,0,0,0-.53-.31A13.26,13.26,0,0,0,0,16.39q0,.43,0,.87a.47.47,0,0,0,.22.37A13.23,13.23,0,0,0,3.12,19,.48.48,0,0,0,3.57,18.89ZM1,17c0-.19,0-.38,0-.57a12.33,12.33,0,0,1,6.71-11,14.49,14.49,0,0,0-5,11,13.9,13.9,0,0,0,.08,1.44A13.7,13.7,0,0,1,1,17Z"></path><path class="cls-5" d="M4.51,22.08a.46.46,0,0,0,.09-.5A13.58,13.58,0,0,1,11.09,4.24a.46.46,0,0,0,.23-.57.46.46,0,0,0-.53-.31A13.27,13.27,0,0,0,.58,20.28a.51.51,0,0,0,.18.25A13.5,13.5,0,0,0,4,22.2.47.47,0,0,0,4.51,22.08ZM1.43,19.85A12.36,12.36,0,0,1,7.65,5.41,14.51,14.51,0,0,0,3.36,20.93,12.19,12.19,0,0,1,1.43,19.85Z"></path><path class="cls-5" d="M6.47,25.31a.48.48,0,0,0,0-.56A13.56,13.56,0,0,1,11.09,4.24a.46.46,0,0,0,.23-.57.46.46,0,0,0-.53-.31,13.26,13.26,0,0,0-8.8,20,.34.34,0,0,0,.12.12,13.42,13.42,0,0,0,3.83,2A.47.47,0,0,0,6.47,25.31ZM2.74,22.8A12.33,12.33,0,0,1,7.65,5.41,14.5,14.5,0,0,0,4.81,24,12,12,0,0,1,2.74,22.8Z"></path><path class="cls-5" d="M.4,14.13a.45.45,0,0,0,.66,0,13,13,0,0,1,3.16-2.29A.47.47,0,0,0,3.79,11,13.75,13.75,0,0,0,.4,13.47.47.47,0,0,0,.4,14.13Z"></path><path class="cls-5" d="M18.57,13.14a.47.47,0,0,0-.08-.66A13.45,13.45,0,0,0,12.23,9.7a.46.46,0,0,0-.54.38.47.47,0,0,0,.39.54,12.58,12.58,0,0,1,5.83,2.6A.47.47,0,0,0,18.57,13.14Z"></path><path class="cls-5" d="M23,25.05a.46.46,0,0,0,.52-.41,14.76,14.76,0,0,0,.08-1.5,13.54,13.54,0,0,0-.8-4.61.47.47,0,0,0-.88.32,12.68,12.68,0,0,1,.74,4.29,13,13,0,0,1-.08,1.4A.47.47,0,0,0,23,25.05Z"></path><path class="cls-5" d="M20,9.63A.47.47,0,0,0,19.84,9a14,14,0,0,0-4.37-2.14.46.46,0,0,0-.58.32.48.48,0,0,0,.32.58,13.15,13.15,0,0,1,4.08,2A.48.48,0,0,0,20,9.63Z"></path><path class="cls-5" d="M25.15,21.52a.47.47,0,0,0,.49-.44c0-.23,0-.45,0-.68a13.94,13.94,0,0,0-1.24-5.78.46.46,0,0,0-.62-.24.47.47,0,0,0-.23.62,13.17,13.17,0,0,1,1.15,5.4c0,.21,0,.42,0,.63A.47.47,0,0,0,25.15,21.52Z"></path><path class="cls-5" d="M1.35,11.31a.47.47,0,0,0,.66,0,13.09,13.09,0,0,1,4.1-2.91.47.47,0,0,0-.39-.86,14.27,14.27,0,0,0-4.39,3.12A.46.46,0,0,0,1.35,11.31Z"></path><path class="cls-5" d="M.1,16a.48.48,0,0,0,.65.12A12.69,12.69,0,0,1,3.43,14.7a.47.47,0,0,0,.27-.61.47.47,0,0,0-.6-.27A13.2,13.2,0,0,0,.22,15.34.47.47,0,0,0,.1,16Z"></path><path class="cls-5" d="M16.15,16.24a.46.46,0,0,0-.09-.65,13.75,13.75,0,0,0-5.49-2.42.47.47,0,0,0-.55.38.45.45,0,0,0,.37.54,12.75,12.75,0,0,1,5.11,2.25A.45.45,0,0,0,16.15,16.24Z"></path><path class="cls-5" d="M21.12,27a.47.47,0,0,0,.47-.47,13.6,13.6,0,0,0-1-5.07.47.47,0,0,0-.87.36,12.67,12.67,0,0,1,.93,4.71A.48.48,0,0,0,21.12,27Z"></path><path class="cls-5" d="M28.3,7a5.7,5.7,0,0,1-3.82-2.3,6.38,6.38,0,0,0-2.86-2.11A5.12,5.12,0,0,0,19,2.46a6.59,6.59,0,0,0-1.91.72,6,6,0,0,0-.55.33l-.15.11,0,0h0l.3.36-.3-.36a.47.47,0,0,0,.59.73h0l0,0L17,4.28,17.5,4a5.94,5.94,0,0,1,1.64-.61,4.21,4.21,0,0,1,2.18.12,5.33,5.33,0,0,1,2.43,1.81A6.56,6.56,0,0,0,28.27,8a3.24,3.24,0,0,0,2.26-.76A4.79,4.79,0,0,0,32,4.62a.46.46,0,0,0-.33-.57.46.46,0,0,0-.57.34,4.06,4.06,0,0,1-1.15,2.09A2.35,2.35,0,0,1,28.3,7ZM16.88,4.4Z"></path><path class="cls-5" d="M11,28.51a12.67,12.67,0,0,0,2.23.2A12.33,12.33,0,0,0,25.59,16.39c0-.36,0-.72-.05-1.08a.47.47,0,0,1,.43-.5.46.46,0,0,1,.5.42,11.13,11.13,0,0,1,.05,1.16A13.26,13.26,0,0,1,13.26,29.65a13.43,13.43,0,0,1-2.47-.23l-.12,0a14.52,14.52,0,0,1,0-26,.28.28,0,0,1,.12,0,13.43,13.43,0,0,1,2.47-.23A13.27,13.27,0,0,1,26.08,13a.48.48,0,0,1-.34.57.46.46,0,0,1-.57-.33A12.32,12.32,0,0,0,13.26,4.06,11.79,11.79,0,0,0,11,4.27a13.58,13.58,0,0,0,0,24.24Z"></path><path class="cls-5" d="M17.05,28.84a.47.47,0,0,0-.37-.56A12.15,12.15,0,0,1,7.09,17.83a.47.47,0,0,0-.52-.41.48.48,0,0,0-.41.52A13.11,13.11,0,0,0,16.49,29.2.48.48,0,0,0,17.05,28.84Z"></path><path class="cls-5" d="M6.53,16.17a.48.48,0,0,0,.5-.44A12.14,12.14,0,0,1,16.68,4.49a.47.47,0,0,0,.37-.55.48.48,0,0,0-.56-.37A13.1,13.1,0,0,0,6.09,15.68.47.47,0,0,0,6.53,16.17Z"></path></g></svg>