<svg xmlns="http://www.w3.org/2000/svg" id="Layer_1" data-name="Layer 1" viewBox="0 0 32.06 32"><defs><style>.cls-1{fill:#ffa733;}.cls-2{fill:#fdd844;}.cls-3{fill:#fdab08;}.cls-4{fill:#9ccc65;}.cls-5{fill:#7cb342;}.cls-6{fill:#81c784;}.cls-7{fill:#d4e157;}.cls-8{fill:#4caf50;}.cls-9{fill:#c0ca33;}.cls-10{fill:#ee8700;}.cls-11{fill:#b39a7c;}.cls-12{fill:#a78966;}.cls-13{fill:#fff;}</style></defs><path class="cls-1" d="M31.56,9.19l-1,6.9L30.18,19H26.79l.42-2.95,1-6.9a1.88,1.88,0,0,0-1.38-1.81,1.68,1.68,0,0,1,.5-.07h2.39A1.88,1.88,0,0,1,31.56,9.19Z"></path><path class="cls-2" d="M20.52,3.61V17.35H14.24V3.61a3.14,3.14,0,0,1,6.28,0Z"></path><path class="cls-3" d="M20.52,6.39v11H14.24v-11a6,6,0,0,1,3.14,2.09A6,6,0,0,1,20.52,6.39Z"></path><path class="cls-4" d="M22.09,7.44v9.91H12.67V7.44a4.69,4.69,0,0,1,4.71,4.39,4.68,4.68,0,0,1,3.88-4.32A4.5,4.5,0,0,1,22.09,7.44Z"></path><path class="cls-5" d="M21.26,7.51a3.09,3.09,0,0,0-.49,1.68v.09L21.42,14a1.88,1.88,0,0,1-1.86,2.14H15.88a7.94,7.94,0,0,0-1.64-6.37c-.18-.22-.37-.43-.57-.64h0a8.7,8.7,0,0,0-1-.83v9.11h9.42V7.44A4.5,4.5,0,0,0,21.26,7.51Z"></path><path class="cls-1" d="M28.17,9.19l-1,6.9L26.79,19H23.4L23,16.09l-1-6.9a1.89,1.89,0,0,1,1.89-1.88h2.38A1.88,1.88,0,0,1,28.17,9.19Z"></path><path class="cls-6" d="M4.93,11.61C7.55,9,11.06,8.25,12.78,10A6.71,6.71,0,0,0,1.46,16.09h1A8.61,8.61,0,0,1,4.93,11.61Z"></path><path class="cls-6" d="M12.52,16.09H14.6A6.7,6.7,0,0,0,12.78,10C14.14,11.33,14,13.81,12.52,16.09Z"></path><path class="cls-7" d="M4.93,11.61a8.61,8.61,0,0,0-2.49,4.48h2a21.21,21.21,0,0,1,2.3-2.69c2.63-2.63,5.34-4.16,6.07-3.43C11.06,8.25,7.55,9,4.93,11.61Z"></path><path class="cls-7" d="M9.35,16l-.06.06h3.23c1.44-2.28,1.62-4.76.26-6.12C13.51,10.69,12,13.41,9.35,16Z"></path><path class="cls-6" d="M6.71,13.4a21.21,21.21,0,0,0-2.3,2.69H9.29L9.35,16C12,13.41,13.51,10.69,12.78,10S9.34,10.77,6.71,13.4Z"></path><path class="cls-8" d="M2.44,16.09h-1a6.74,6.74,0,0,0,1.82,3.37A3.74,3.74,0,0,1,2.44,16.09Z"></path><path class="cls-8" d="M11.14,17.82C8.52,20.44,5,21.18,3.28,19.46A6.71,6.71,0,0,0,14.6,16.09H12.52A10.47,10.47,0,0,1,11.14,17.82Z"></path><path class="cls-9" d="M4.41,16.09h-2a3.74,3.74,0,0,0,.84,3.37C2.81,19,3.3,17.67,4.41,16.09Z"></path><path class="cls-9" d="M11.14,17.82a10,10,0,0,0,1.38-1.73H9.29c-2.61,2.59-5.28,4.09-6,3.37C5,21.18,8.52,20.44,11.14,17.82Z"></path><path class="cls-8" d="M9.29,16.09H4.41C3.3,17.67,2.81,19,3.28,19.46,4,20.18,6.68,18.68,9.29,16.09Z"></path><path class="cls-10" d="M28.47,16.09l1-6.81V9.19a3.15,3.15,0,0,0-.63-1.88H27.29a1.68,1.68,0,0,0-.5.07,1.88,1.88,0,0,1,1.38,1.81l-1,6.9H23L23.4,19h6.78l.41-2.95Z"></path><path class="cls-11" d="M31.59,26.8H.47v4.73H31.59Z"></path><path class="cls-12" d="M31.59,26.8H.47v1.26H31.59Z"></path><path class="cls-11" d="M31.59,22.08H.47V26.8H31.59Z"></path><path class="cls-12" d="M31.59,22.08H.47v1.25H31.59Z"></path><path class="cls-11" d="M31.59,17.35H.47v4.73H31.59Z"></path><path d="M31,16.88,32,9.22v0a2.36,2.36,0,0,0-2.2-2.35l1.72-1.71-.67-.67L28.56,6.79l.05,0H26.45l1.71-1.71-.67-.67-2,2V4.15h-.94V6.48l-2-2-.66.67,1.73,1.73a2.29,2.29,0,0,0-1,.41V7h-.47a5.62,5.62,0,0,0-1.1.12V3.61a3.61,3.61,0,1,0-7.22,0V7.08A5.62,5.62,0,0,0,12.67,7H12.2v1.9a7.19,7.19,0,0,0-11,8H0V32H32.06V16.88Zm.13-7.72-.49,3.51H29.24v.95h1.23L30,16.88H27.57l1.07-7.66v0a2.3,2.3,0,0,0-.47-1.41h1.51A1.42,1.42,0,0,1,31.09,9.16ZM23.91,7.78h2.38A1.41,1.41,0,0,1,27.7,9.16l-.49,3.51H24.66v.95h2.42l-.46,3.26h-3l-.81-5.77h2.52v-.95H22.63l-.14-1A1.42,1.42,0,0,1,23.91,7.78Zm-2.29.87a2.5,2.5,0,0,0-.07.54v0l1.08,7.66H17.84V12.15h0c0-.11,0-.21,0-.32a4.26,4.26,0,0,1,3.77-3.9ZM14.71,4.46V3.61a2.43,2.43,0,0,1,0-.38l.8.8-.63.63Zm.95-2.89,1.17,1.17-.63.63L15.09,2.25A2.68,2.68,0,0,1,15.66,1.57Zm4.1.83-1,1-.63-.63,1.06-1.06A2.72,2.72,0,0,1,19.76,2.4ZM18.58,8.33l-.42-.42.63-.62.5.49A6.4,6.4,0,0,0,18.58,8.33Zm.88-1.71L20.05,6V7.21ZM18.79,6l-.63-.62.63-.63.63.63Zm1.26-2.34v1L19.46,4,20,3.45S20.05,3.55,20.05,3.61ZM18.13,4l-.63.63L16.87,4l.63-.63ZM16.2,4.7l.63.63L16.2,6l-.62-.62ZM17.5,6l.63.63-.63.63-.63-.63Zm-.67,1.92-.53.54a4.75,4.75,0,0,0-.69-.57l.59-.59Zm.67.67L18,9a5.6,5.6,0,0,0-.57.94,4.93,4.93,0,0,0-.47-.8Zm.92-7.43-.92.92-1-1a2.57,2.57,0,0,1,.87-.15A2.76,2.76,0,0,1,18.42,1.15Zm-3.71,5,.2-.2.63.63-.78.78,0,0Zm2.2,5.64c0,.11,0,.21,0,.32v4.73h-2a7.15,7.15,0,0,0-1.73-7.21V7.93A4.26,4.26,0,0,1,16.91,11.83Zm-3,5H12.56a8.34,8.34,0,0,0,1.55-3.6A6.17,6.17,0,0,1,13.89,16.88ZM3.62,10.3A6.19,6.19,0,0,1,8,8.47a6.74,6.74,0,0,1,1.43.16,9.07,9.07,0,0,0-4.87,2.65,6,6,0,0,0-.42.45l.7.62a5,5,0,0,1,.39-.41,7.59,7.59,0,0,1,5.05-2.43,3.81,3.81,0,0,1,.78.08,12.42,12.42,0,0,0-3,1.92l.6.73c1.78-1.47,3-2,3.56-2a.34.34,0,0,1,.2,0,.3.3,0,0,1,0,.19,4.36,4.36,0,0,1-.9,2.09l.79.51a8.78,8.78,0,0,0,.77-1.43,6.59,6.59,0,0,1-1.79,5.22H9.15c.18-.17.36-.34.53-.52l.28-.28-.68-.65L9,15.7c-.42.41-.85.81-1.28,1.18H4.45a16.82,16.82,0,0,1,1-1.38l-.74-.59a16,16,0,0,0-1.36,2H2.83a7,7,0,0,1,1.48-3.83l-.76-.56A8.32,8.32,0,0,0,2,16.14,6.21,6.21,0,0,1,3.62,10.3Zm27.5,20.76H.94V27.27H31.12Zm0-4.73H.94V22.55H31.12ZM.94,21.61V17.82H31.12v3.79Z"></path><path d="M11.83,13.89l-.76-.56a16.08,16.08,0,0,1-1.16,1.42l.7.63C11.06,14.88,11.47,14.38,11.83,13.89Z"></path><path d="M6.66,14.12,6,13.47c-.22.23-.44.47-.65.71L6,14.8C6.24,14.57,6.45,14.34,6.66,14.12Z"></path><path d="M8,12.84l-.63-.71c-.23.21-.47.43-.7.66l.66.67Z"></path><path class="cls-13" d="M19.72,13.9h-.94v-.85h.94Zm0-1.79h-.94A3.31,3.31,0,0,1,20,9.56l.58.74A2.34,2.34,0,0,0,19.72,12.11Z"></path><path class="cls-13" d="M16.25,19.7H12.71v-.94h3.54Zm-4.49,0h-.94v-.94h.94Zm-1.88,0H8.94v-.94h.94ZM8,19.7H2.35v-.94H8Z"></path><path class="cls-13" d="M29.71,18.76h-4.3v.94h4.3Z"></path><path class="cls-13" d="M29.71,24.41H24.06v-.94h5.65Zm-6.59,0h-.94v-.94h.94Zm-1.88,0H20.3v-.94h.94Zm-1.88,0H15.81v-.94h3.55Z"></path><path class="cls-13" d="M7.06,24.41H6.12v-.94h.94Zm-1.88,0H4.23v-.94h.95Zm-1.89,0H2.35v-.94h.94Z"></path><path class="cls-13" d="M16.25,29.11H12.71v-.94h3.54Zm-4.49,0h-.94v-.94h.94Zm-1.88,0H8.94v-.94h.94ZM8,29.11H2.35v-.94H8Z"></path><path class="cls-13" d="M29.71,28.17h-4.3v.94h4.3Z"></path></svg>